
<svg width="9px" height="6px" viewBox="0 0 9 6" version="1.1" xmlns="http://www.w3.org/2000/svg" xmlns:xlink="http://www.w3.org/1999/xlink">
    <g id="Content" stroke="none" stroke-width="1" fill="none" fill-rule="evenodd" opacity="0.4">
        <g transform="translate(-1392.000000, -447.000000)" fill="#808FA3" id="side-app---ooto-space" stroke="#808FA3" stroke-width="0.3">
            <g transform="translate(1188.000000, 81.000000)">
                <g id="recent-files" transform="translate(22.000000, 364.000000)">
                    <path d="M188.239281,7.78981783 C188.448586,7.99110282 188.455159,8.32399218 188.253874,8.5334285 C188.150668,8.64071038 188.012753,8.69474573 187.874707,8.69474573 C187.743497,8.69474573 187.612287,8.64610076 187.510264,8.54802199 L184.091969,5.26119973 C183.988894,5.16206917 183.930651,5.02507442 183.930651,4.88203191 C183.930651,4.73912088 183.988894,4.60212613 184.091969,4.50299557 L187.510264,1.21617331 C187.719569,1.01488831 188.052589,1.02133049 188.253874,1.2307668 C188.455159,1.44020311 188.448586,1.77309247 188.239281,1.97437747 L185.215273,4.88203191 L188.239281,7.78981783 Z" id="chevron-left" transform="translate(186.165651, 4.882047) scale(-1, -1) rotate(-90.000000) translate(-186.165651, -4.882047) "></path>
                </g>
            </g>
        </g>
    </g>
</svg>