
<svg width="18px" height="26px" viewBox="0 0 18 26" version="1.1" xmlns="http://www.w3.org/2000/svg">
    <g id="Settings" stroke="none" stroke-width="1" fill="none" fill-rule="evenodd">
        <g id="Settings---Webhooks" transform="translate(-132.000000, -316.000000)" stroke="#1F346C" fill-rule="nonzero">
            <g id="flow-branch" transform="translate(132.000000, 316.000000)">
                <path d="M18,3.70588235 C18.0017082,2.01999862 16.686075,0.626448328 15.0028798,0.531260534 C13.3196845,0.436072739 11.8553264,1.6724094 11.6669519,3.3477368 C11.4785773,5.0230642 12.6318132,6.55372425 14.2941176,6.83470588 L14.2941176,7.94117647 C14.2941176,9.98787878 12.6349376,11.6470588 10.5882353,11.6470588 L7.41176471,11.6470588 C5.97106852,11.6492351 4.60871802,12.3031633 3.70588235,13.4258824 L3.70588235,6.83470588 C5.33412093,6.55948333 6.4799096,5.08257829 6.3418146,3.43702729 C6.2037196,1.79147629 4.8278059,0.526193056 3.17647059,0.526193056 C1.52513527,0.526193056 0.149221572,1.79147629 0.0111265747,3.43702729 C-0.126968422,5.08257829 1.01882024,6.55948333 2.64705882,6.83470588 L2.64705882,19.6358824 C1.01882024,19.9111049 -0.126968422,21.3880099 0.0111265747,23.0335609 C0.149221572,24.6791119 1.52513527,25.9443952 3.17647059,25.9443952 C4.8278059,25.9443952 6.2037196,24.6791119 6.3418146,23.0335609 C6.4799096,21.3880099 5.33412093,19.9111049 3.70588235,19.6358824 L3.70588235,16.4117647 C3.70588235,14.3650624 5.3650624,12.7058824 7.41176471,12.7058824 L10.5882353,12.7058824 C13.2197097,12.7058824 15.3529412,10.5726509 15.3529412,7.94117647 L15.3529412,6.83470588 C16.8800845,6.57657236 17.9984305,5.25468744 18,3.70588235 Z M1.05882353,3.70588235 C1.05882353,2.53633818 2.00692641,1.58823529 3.17647059,1.58823529 C4.34601476,1.58823529 5.29411765,2.53633818 5.29411765,3.70588235 C5.29411765,4.87542653 4.34601476,5.82352941 3.17647059,5.82352941 C2.61483567,5.82352941 2.07620385,5.60042081 1.67906799,5.20328495 C1.28193213,4.80614909 1.05882353,4.26751727 1.05882353,3.70588235 Z M5.29411765,22.7647059 C5.29411765,23.9342501 4.34601476,24.8823529 3.17647059,24.8823529 C2.00692641,24.8823529 1.05882353,23.9342501 1.05882353,22.7647059 C1.05882353,21.5951617 2.00692641,20.6470588 3.17647059,20.6470588 C4.34601476,20.6470588 5.29411765,21.5951617 5.29411765,22.7647059 Z M14.8235294,5.82352941 C13.6539852,5.82352941 12.7058824,4.87542653 12.7058824,3.70588235 C12.7058824,2.53633818 13.6539852,1.58823529 14.8235294,1.58823529 C15.9930736,1.58823529 16.9411765,2.53633818 16.9411765,3.70588235 C16.9411765,4.26751727 16.7180679,4.80614909 16.320932,5.20328495 C15.9237961,5.60042081 15.3851643,5.82352941 14.8235294,5.82352941 Z" id="Shape"></path>
            </g>
        </g>
    </g>
</svg>