<svg xmlns="http://www.w3.org/2000/svg" width="20" height="20" viewBox="0 0 20 20">
  <path d="M16.1303301,15.9303301 C15.6632233,16.3974369 15.6632233,17.2025631 16.1303301,17.6696699 L16.1437496,17.6834379 C16.6080616,18.1721874 17.3919384,18.1721874 17.8696699,17.6696699 C18.3367767,17.2025631 18.3367767,16.3974369 17.8696699,15.9303301 L17,15.0606602 L16.1303301,15.9303301 Z M8,3.05933983 L8,0 L10,0 L10,5.05933983 L17.0103301,12.0696699 L15.9496699,13.1303301 L15.36,12.5406602 L10.2103301,17.6903301 C8.67743687,19.2232233 6.16256313,19.2232233 4.62966991,17.6903301 L1.78966991,14.8503301 C0.256776695,13.3174369 0.256776695,10.8025631 1.78966991,9.26966991 L6.93933983,4.12 L6.34966991,3.53033009 L7.41033009,2.46966991 L8,3.05933983 Z M10,7.18066017 L10,10 C10,10.5522847 9.55228475,11 9,11 C8.44771525,11 8,10.5522847 8,10 L8,5.18066017 L2.85033009,10.3303301 C1.9032233,11.2774369 1.9032233,12.8425631 2.85033009,13.7896699 L5.69033009,16.6296699 C6.63743687,17.5767767 8.20256313,17.5767767 9.14966991,16.6296699 L14.2993398,11.48 L10,7.18066017 Z M15.0696699,14.8696699 L17,12.9393398 L18.9303301,14.8696699 C19.9832233,15.9225631 19.9832233,17.6774369 18.9437496,18.7165621 C17.8902652,19.825493 16.1193503,19.8278078 15.0628708,18.7235065 C14.0167816,17.669869 14.019048,15.9202919 15.0696699,14.8696699 Z"/>
</svg>
