<svg xmlns="http://www.w3.org/2000/svg" width="20" height="20" viewBox="0 0 20 20">
  <path d="M7.70109214,6.93181818 L6.38636364,6.93181818 L6.38636364,2.97727273 C6.38636364,1.45578644 7.59215007,0.25 9.11363636,0.25 L19.75,0.25 L19.75,10.8863636 C19.75,12.4078499 18.5442136,13.6136364 17.0227273,13.6136364 L13.0681818,13.6136364 L13.0681818,12.1136364 L17.0227273,12.1136364 C17.7157864,12.1136364 18.25,11.5794228 18.25,10.8863636 L18.25,1.75 L9.11363636,1.75 C8.4205772,1.75 7.88636364,2.28421356 7.88636364,2.97727273 L7.88636364,6.38636364 L9.70109214,6.38636364 L9.70109214,7.88636364 L7.70109214,7.88636364 L7.70109214,6.93181818 Z M1.81818182,18.25 L1.81818182,19.75 L0.25,19.75 L0.25,18.1818182 L1.75,18.1818182 L1.75,18.25 L1.81818182,18.25 Z M1.75,16.5454545 L0.25,16.5454545 L0.25,14.5454545 L1.75,14.5454545 L1.75,16.5454545 Z M1.75,11.5454545 L0.25,11.5454545 L0.25,9.54545455 L1.75,9.54545455 L1.75,11.5454545 Z M2.88883817,7.95737969 L2.44497348,6.52455586 C2.72192477,6.43876102 3.01059705,6.39211805 3.31746254,6.38674342 L4.70088627,6.38636366 L4.70129802,7.88636361 L3.33108672,7.88662335 C3.17943483,7.889337 3.03113235,7.91329935 2.88883817,7.95737969 Z M12.0454545,7.88636364 L12.0454545,6.38636364 L13.6136364,6.38636364 L13.6136364,7.95454545 L12.1136364,7.95454545 L12.1136364,7.88636364 L12.0454545,7.88636364 Z M12.1136364,9.59090909 L13.6136364,9.59090909 L13.6136364,11.5909091 L12.1136364,11.5909091 L12.1136364,9.59090909 Z M12.1136364,14.5909091 L13.6136364,14.5909091 L13.6136364,16.5909091 L12.1136364,16.5909091 L12.1136364,14.5909091 Z M10.9747982,18.1789839 L11.4186629,19.6118078 C11.1417116,19.6976026 10.8530393,19.7442456 10.5461738,19.7496202 L9.1627501,19.75 L9.16233834,18.25 L10.5325496,18.2497403 C10.6842015,18.2470266 10.832504,18.2230643 10.9747982,18.1789839 Z M6.16254422,18.25 L6.16254422,19.75 L4.16254422,19.75 L4.16254422,18.25 L6.16254422,18.25 Z"/>
</svg>
