<svg xmlns="http://www.w3.org/2000/svg" width="24" height="24" viewBox="0 0 24 24">
  <path d="M22,5 L22,2.96086957 C22,2.41678546 21.5902787,2 21.0869565,2 L2.96086957,2 C2.41315432,2 2,2.41315432 2,2.96086957 L2,5 L22,5 Z M22,7 L2,7 L2,14.3913043 C2,14.8946265 2.41678546,15.3043478 2.96086957,15.3043478 L21.0869565,15.3043478 C21.5868457,15.3043478 22,14.8911935 22,14.3913043 L22,7 Z M2.96086957,0 L21.0869565,0 C22.7025732,0 24,1.31979625 24,2.96086957 L24,14.3913043 C24,15.995763 22.6914152,17.3043478 21.0869565,17.3043478 L2.96086957,17.3043478 C1.31979625,17.3043478 0,16.006921 0,14.3913043 L0,2.96086957 C0,1.30858482 1.30858482,0 2.96086957,0 Z M3,11 L3,9 L8,9 L8,11 L3,11 Z" transform="translate(0 3)"/>
</svg>
