
<svg width="26px" height="18px" viewBox="0 0 26 18" version="1.1" xmlns="http://www.w3.org/2000/svg">
    <g id="Settings" stroke="none" stroke-width="1" fill="none" fill-rule="evenodd">
        <g id="Settings---Webhooks" transform="translate(-128.000000, -382.000000)" fill="#1F346C" fill-rule="nonzero">
            <g id="credit-card" transform="translate(128.000000, 382.000000)">
                <path d="M22.7647059,4.70212105e-16 L2.64705882,4.70212105e-16 C1.19229171,0.0171503122 0.0171503122,1.19229171 0,2.64705882 L0,15.3529412 C0.0171503122,16.8077083 1.19229171,17.9828497 2.64705882,18 L22.7647059,18 C24.219473,17.9828497 25.3946144,16.8077083 25.4117647,15.3529412 L25.4117647,2.64705882 C25.3946144,1.19229171 24.219473,0.0171503122 22.7647059,0 Z M2.64705882,1.05882353 L22.7647059,1.05882353 C23.6359275,1.07299253 24.3387722,1.77583717 24.3529412,2.64705882 L24.3529412,5.29411765 L1.05882353,5.29411765 L1.05882353,2.64705882 C1.07299253,1.77583717 1.77583717,1.07299253 2.64705882,1.05882353 Z M22.7647059,16.9411765 L2.64705882,16.9411765 C1.77583717,16.9270075 1.07299253,16.2241628 1.05882353,15.3529412 L1.05882353,6.35294118 L24.3529412,6.35294118 L24.3529412,15.3529412 C24.3387722,16.2241628 23.6359275,16.9270075 22.7647059,16.9411765 Z" id="Shape"></path>
                <rect id="Rectangle-path" x="3.17647059" y="9.52941176" width="5.29411765" height="1.05882353"></rect>
            </g>
        </g>
    </g>
</svg>