<?xml version="1.0" encoding="UTF-8"?>
<svg width="24px" height="24px" viewBox="0 0 24 24" version="1.1" xmlns="http://www.w3.org/2000/svg" xmlns:xlink="http://www.w3.org/1999/xlink">
    <!-- Generator: Sketch 51.1 (57501) - http://www.bohemiancoding.com/sketch -->
    <title>cross</title>
    <desc>Created with Sketch.</desc>
    <defs></defs>
    <g id="cross" stroke="none" stroke-width="1" fill="none" fill-rule="evenodd">
        <g id="icon/cross" transform="translate(6.000000, 6.000000)" fill="#000000" fill-rule="nonzero">
            <path d="M6.58528137,5.38528137 L11.3852814,5.38528137 C11.7166522,5.38528137 11.9852814,5.65391052 11.9852814,5.98528137 C11.9852814,6.31665222 11.7166522,6.58528137 11.3852814,6.58528137 L6.58528137,6.58528137 L6.58528137,11.3852814 C6.58528137,11.7166522 6.31665222,11.9852814 5.98528137,11.9852814 C5.65391052,11.9852814 5.38528137,11.7166522 5.38528137,11.3852814 L5.38528137,6.58528137 L0.585281374,6.58528137 C0.253910524,6.58528137 -0.0147186258,6.31665222 -0.0147186258,5.98528137 C-0.0147186258,5.65391052 0.253910524,5.38528137 0.585281374,5.38528137 L5.38528137,5.38528137 L5.38528137,0.585281374 C5.38528137,0.253910524 5.65391052,-0.0147186258 5.98528137,-0.0147186258 C6.31665222,-0.0147186258 6.58528137,0.253910524 6.58528137,0.585281374 L6.58528137,5.38528137 Z" id="cross" transform="translate(5.985281, 5.985281) rotate(-45.000000) translate(-5.985281, -5.985281) "></path>
        </g>
    </g>
</svg>