<svg xmlns="http://www.w3.org/2000/svg" width="24" height="24" viewBox="0 0 24 24">
  <g fill="none" fill-rule="evenodd">
    <rect width="24" height="24" fill="#D8D8D8" opacity="0"/>
    <g transform="translate(2)">
      <path fill="#6849FC" d="M12.7272727,0 L12.7272727,6.7826087 C12.7272727,7.07113043 12.96,7.30434783 13.2467532,7.30434783 L20,7.30434783 L20,22.4347826 C20,23.2977391 19.3007792,24 18.4415584,24 L1.81818182,24 C0.958961039,24 0.25974026,23.2977391 0.25974026,22.4347826 L0.25974026,21.5039941 L0.25974026,1.56521739 C0.25974026,0.70226087 0.958961039,0 1.81818182,0 L12.7272727,0 Z M13.7662338,0.30573913 L19.6955844,6.26086957 L13.7662338,6.26086957 L13.7662338,0.30573913 Z M5.72190476,9.6 C5.1917114,9.6 4.76190476,10.0298066 4.76190476,10.56 C4.76190476,11.0901934 5.1917114,11.52 5.72190476,11.52 L15.2304762,11.52 C15.7606696,11.52 16.1904762,11.0901934 16.1904762,10.56 C16.1904762,10.0298066 15.7606696,9.6 15.2304762,9.6 L5.72190476,9.6 Z M5.72190476,13.44 C5.1917114,13.44 4.76190476,13.8698066 4.76190476,14.4 C4.76190476,14.9301934 5.1917114,15.36 5.72190476,15.36 L15.2304762,15.36 C15.7606696,15.36 16.1904762,14.9301934 16.1904762,14.4 C16.1904762,13.8698066 15.7606696,13.44 15.2304762,13.44 L5.72190476,13.44 Z M5.72190476,17.28 C5.1917114,17.28 4.76190476,17.7098066 4.76190476,18.24 C4.76190476,18.7701934 5.1917114,19.2 5.72190476,19.2 L10.4685714,19.2 C10.9987648,19.2 11.4285714,18.7701934 11.4285714,18.24 C11.4285714,17.7098066 10.9987648,17.28 10.4685714,17.28 L5.72190476,17.28 Z"/>
      <polygon fill="#4223B9" points="13.81 .48 13.81 6.24 19.524 6.24"/>
    </g>
  </g>
</svg>
