<?xml version="1.0" encoding="UTF-8"?>
<svg width="24px" height="24px" viewBox="0 0 24 24" version="1.1" xmlns="http://www.w3.org/2000/svg" xmlns:xlink="http://www.w3.org/1999/xlink">
    <!-- Generator: Sketch 50.2 (55047) - http://www.bohemiancoding.com/sketch -->
    <title>document filled</title>
    <desc>Created with Sketch.</desc>
    <defs></defs>
    <g id="New-UI-Kit" stroke="none" stroke-width="1" fill="none" fill-rule="evenodd">
        <g id="Icons" transform="translate(-184.000000, -373.000000)">
            <g id="document-filled" transform="translate(184.000000, 373.000000)">
                <g id="icon/document-filled">
                    <rect id="Rectangle-18" fill="#FFFFFF" opacity="0" x="0" y="0" width="24" height="24"></rect>
                    <g id="icon/document" stroke-width="1" transform="translate(2.000000, 0.000000)">
                        <path d="M12.7272727,0 L12.7272727,6.7826087 C12.7272727,7.07113043 12.96,7.30434783 13.2467532,7.30434783 L20,7.30434783 L20,22.4347826 C20,23.2977391 19.3007792,24 18.4415584,24 L1.81818182,24 C0.958961039,24 0.25974026,23.2977391 0.25974026,22.4347826 L0.25974026,21.5039941 L0.25974026,1.56521739 C0.25974026,0.70226087 0.958961039,0 1.81818182,0 L12.7272727,0 Z M13.7662338,0.30573913 L19.6955844,6.26086957 L13.7662338,6.26086957 L13.7662338,0.30573913 Z M5.72190476,9.6 C5.1917114,9.6 4.76190476,10.0298066 4.76190476,10.56 C4.76190476,11.0901934 5.1917114,11.52 5.72190476,11.52 L15.2304762,11.52 C15.7606696,11.52 16.1904762,11.0901934 16.1904762,10.56 C16.1904762,10.0298066 15.7606696,9.6 15.2304762,9.6 L5.72190476,9.6 Z M5.72190476,13.44 C5.1917114,13.44 4.76190476,13.8698066 4.76190476,14.4 C4.76190476,14.9301934 5.1917114,15.36 5.72190476,15.36 L15.2304762,15.36 C15.7606696,15.36 16.1904762,14.9301934 16.1904762,14.4 C16.1904762,13.8698066 15.7606696,13.44 15.2304762,13.44 L5.72190476,13.44 Z M5.72190476,17.28 C5.1917114,17.28 4.76190476,17.7098066 4.76190476,18.24 C4.76190476,18.7701934 5.1917114,19.2 5.72190476,19.2 L10.4685714,19.2 C10.9987648,19.2 11.4285714,18.7701934 11.4285714,18.24 C11.4285714,17.7098066 10.9987648,17.28 10.4685714,17.28 L5.72190476,17.28 Z" id="Combined-Shape" fill="#6849FC"></path>
                        <polygon id="Path-3" fill="#4223B9" points="13.8095238 0.48 13.8095238 6.24 19.5238095 6.24"></polygon>
                    </g>
                </g>
                <rect id="Rectangle" fill="#D8D8D8" opacity="0" x="0" y="0" width="24" height="24"></rect>
            </g>
        </g>
    </g>
</svg>