<svg width="15px" height="18px" viewBox="0 0 15 18" version="1.1" xmlns="http://www.w3.org/2000/svg">
    <g id="Settings" stroke="none" stroke-width="1" fill="none" fill-rule="evenodd" opacity="0.5">
        <g id="Settings---Webhooks" transform="translate(-922.000000, -324.000000)" fill="#000000" fill-rule="nonzero">
            <g id="compose-copy-2" transform="translate(922.000000, 324.000000)">
                <polygon id="Shape" points="14.25 7.875 14.25 17.25 0.75 17.25 0.75 3 8.25 3 8.25 2.25 0 2.25 0 18 15 18 15 7.875"></polygon>
                <path d="M5.4675,15.24375 L9.01875,12.52875 L13.3425,5.02875 L10.365,3.3225 L6.04125,10.8225 L5.4675,15.24375 Z M6.75,11.05875 L10.6425,4.34625 L12.3225,5.31375 L8.445,12.02625 L6.4425,13.55625 L6.75,11.05875 Z" id="Shape"></path>
                <path d="M14.77125,2.58 C15.0780518,2.04812085 15.0777943,1.39296743 14.7705743,0.86132968 C14.4633544,0.329691932 13.8958461,0.00233828129 13.2818243,0.00257968012 C12.6678025,0.00282107894 12.1005518,0.330620853 11.79375,0.8625 L10.8,2.58 L13.7775,4.2975 L14.77125,2.58 Z M11.82375,2.30625 L12.4425,1.23375 C12.7096677,0.76983081 13.3023308,0.610332252 13.76625,0.8775 C14.2301692,1.14466775 14.3896677,1.73733081 14.1225,2.20125 L13.5,3.2775 L11.82375,2.30625 Z" id="Shape"></path>
            </g>
        </g>
    </g>
</svg>