<svg xmlns="http://www.w3.org/2000/svg" width="17" height="20" viewBox="0 0 17 20">
  <path d="M15,18 L15,9 L17,9 L17,20 L0,20 L0,1.96679688 L9,1.96679688 L9,3.96679688 L2,3.96679688 L2,18 L15,18 Z M5.72827701,17.02351 L6.44147403,11.5556661 L11.0650399,3.49623931 L14.7381824,5.62903171 L10.115859,13.643886 L5.72827701,17.02351 Z M12.6916048,6.17522361 L11.6158111,5.5505692 L7.89044086,12.0443339 L7.68448895,13.6232986 L8.96499202,12.6369651 L12.6916048,6.17522361 Z M16.0139666,3.43828925 L14.8358478,5.51402223 L11.158609,3.37885127 L11.533909,2.73060578 L12.3718503,1.2833679 C12.9286594,0.293485054 14.2422339,-0.044291266 15.2440949,0.5450387 C16.252505,1.13822112 16.6010033,2.44050431 16.0139666,3.43828925 Z M14.7152515,2.68782001 C14.8853924,2.39858036 14.7824037,2.01372767 14.4835647,1.83794002 C14.1988303,1.67044921 13.8204012,1.76775956 13.6746016,2.02684103 L13.2073485,2.83391468 L14.2790817,3.4562114 L14.7152515,2.68782001 Z"/>
</svg>
