
<svg width="18px" height="18px" viewBox="0 0 18 18" version="1.1" xmlns="http://www.w3.org/2000/svg">
    <defs>
        <linearGradient x1="20.7595802%" y1="21.3909582%" x2="106.147124%" y2="112.488626%" id="linearGradient-1">
            <stop stop-color="#714BFE" offset="0%"></stop>
            <stop stop-color="#6047FA" offset="51.0853452%"></stop>
            <stop stop-color="#5727E1" offset="100%"></stop>
        </linearGradient>
    </defs>
    <g id="Profile" stroke="none" stroke-width="1" fill="none" fill-rule="evenodd">
        <g id="Profile---Slide-Out" transform="translate(-77.000000, -203.000000)" fill="url(#linearGradient-1)" fill-rule="nonzero">
            <g id="Group-6" transform="translate(18.000000, 0.000000)">
                <g id="Group-Copy-2" transform="translate(36.000000, 187.000000)">
                    <g id="Group-7" transform="translate(7.000000, 0.000000)">
                        <g id="equalizer" transform="translate(16.000000, 16.000000)">
                            <path d="M18,2.25 C17.9990089,1.15292973 17.2927861,0.216594575 16.3284125,0.03375 L16.3284125,0 L15.6597774,0 L15.6597774,0.03375 C14.7000978,0.222326716 14,1.1571459 14,2.25 C14,3.3428541 14.7000978,4.27767328 15.6597774,4.46625 L15.6597774,18 L16.3284125,18 L16.3284125,4.46625 C17.2927861,4.28340542 17.9990089,3.34707027 18,2.25 Z M15.9940949,3.75 C15.2555411,3.75 14.6568249,3.07842712 14.6568249,2.25 C14.6568249,1.42157288 15.2555411,0.75 15.9940949,0.75 C16.7326488,0.75 17.331365,1.42157288 17.331365,2.25 C17.331365,2.64782473 17.1904744,3.0293556 16.9396877,3.31066017 C16.6889009,3.59196474 16.348761,3.75 15.9940949,3.75 Z" id="Shape"></path>
                            <path d="M9.33530751,9.40875 L9.33530751,0 L8.66469249,0 L8.66469249,9.40875 C7.702171,9.59732672 7,10.5321459 7,11.625 C7,12.7178541 7.702171,13.6526733 8.66469249,13.84125 L8.66469249,18 L9.33530751,18 L9.33530751,13.84125 C10.297829,13.6526733 11,12.7178541 11,11.625 C11,10.5321459 10.297829,9.59732672 9.33530751,9.40875 Z M9,13.125 C8.25925909,13.125 7.65876994,12.4534271 7.65876994,11.625 C7.65876994,10.7965729 8.25925909,10.125 9,10.125 C9.74074091,10.125 10.3412301,10.7965729 10.3412301,11.625 C10.3412301,12.4534271 9.74074091,13.125 9,13.125 Z" id="Shape"></path>
                            <path d="M2.33530751,0.03375 L2.33530751,0 L1.66469249,0 L1.66469249,0.03375 C0.702170999,0.222326716 1.2098649e-16,1.1571459 0,2.25 C-1.2098649e-16,3.3428541 0.702170999,4.27767328 1.66469249,4.46625 L1.66469249,18 L2.33530751,18 L2.33530751,4.46625 C3.297829,4.27767328 4,3.3428541 4,2.25 C4,1.1571459 3.297829,0.222326716 2.33530751,0.03375 Z M2,3.75 C1.25925909,3.75 0.658769943,3.07842712 0.658769943,2.25 C0.658769943,1.42157288 1.25925909,0.75 2,0.75 C2.74074091,0.75 3.34123006,1.42157288 3.34123006,2.25 C3.34123006,2.64782473 3.1999223,3.0293556 2.94839287,3.31066017 C2.69686344,3.59196474 2.35571633,3.75 2,3.75 Z" id="Shape"></path>
                        </g>
                    </g>
                </g>
            </g>
        </g>
    </g>
</svg>