<svg xmlns="http://www.w3.org/2000/svg" width="24" height="24" viewBox="0 0 24 24">
  <path d="M7,9.07608696 L7,7.07608696 L13,7.07608696 L13,9.07608696 L7,9.07608696 Z M7,13 L7,11 L13,11 L13,13 L7,13 Z M7,17 L7,15 L11,15 L11,17 L7,17 Z M5,5 L5,20 L11.65,20 C13.9027153,20 15.75,18.1527153 15.75,15.9 L15.75,5 L5,5 Z M3,19 L0,19 L0,0 L15,0 L15,3 L17.75,3 L17.75,15.9 C17.75,19.2572847 15.0072847,22 11.65,22 L3,22 L3,19 Z M3,17 L3,3 L13,3 L13,2 L2,2 L2,17 L3,17 Z" transform="translate(3 1)"/>
</svg>
