<svg xmlns="http://www.w3.org/2000/svg" width="20" height="24" viewBox="0 0 20 24">
    <g fill="none" fill-rule="evenodd">
        <path fill="#6849FC" d="M12.727 0v6.783a.52.52 0 0 0 .52.521H20v15.13c0 .864-.7 1.566-1.558 1.566H1.818C.96 24 .26 23.298.26 22.435V1.565C.26.702.959 0 1.818 0h10.91zm1.04.306l5.929 5.955h-5.93V.306zM5.721 9.6a.96.96 0 1 0 0 1.92h9.508a.96.96 0 1 0 0-1.92H5.722zm0 3.84a.96.96 0 1 0 0 1.92h9.508a.96.96 0 1 0 0-1.92H5.722zm0 3.84a.96.96 0 1 0 0 1.92h4.747a.96.96 0 1 0 0-1.92H5.722z"/>
        <path fill="#4223B9" d="M13.81.48v5.76h5.714z"/>
    </g>
</svg>
