<svg xmlns="http://www.w3.org/2000/svg" width="15" height="20" viewBox="0 0 15 20">
  <path d="M2.20652174,14.4422194 L2.20652174,12.3478261 L2.20652174,5.55778064 C1.07658851,5.23258362 0.25,4.19108273 0.25,2.95652174 C0.25,1.46175106 1.46175106,0.25 2.95652174,0.25 C4.45129242,0.25 5.66304348,1.46175106 5.66304348,2.95652174 C5.66304348,4.19108273 4.83645497,5.23258362 3.70652174,5.55778064 L3.70652174,9.28762833 C4.36470793,8.77404263 5.19142517,8.4673913 6.08695652,8.4673913 L8.43478261,8.4673913 C9.74230818,8.4673913 10.8152174,7.39448209 10.8152174,6.08695652 L10.8152174,5.55778064 C9.68528416,5.23258362 8.85869565,4.19108273 8.85869565,2.95652174 C8.85869565,1.46175106 10.0704467,0.25 11.5652174,0.25 C13.0599881,0.25 14.2717391,1.46175106 14.2717391,2.95652174 C14.2717391,4.19108273 13.4451506,5.23258362 12.3152174,5.55778064 L12.3152174,6.08695652 C12.3152174,8.22290921 10.5707353,9.9673913 8.43478261,9.9673913 L6.08695652,9.9673913 C4.77943095,9.9673913 3.70652174,11.0403005 3.70652174,12.3478261 L3.70652174,14.4422194 C4.83645497,14.7674164 5.66304348,15.8089173 5.66304348,17.0434783 C5.66304348,18.5382489 4.45129242,19.75 2.95652174,19.75 C1.46175106,19.75 0.25,18.5382489 0.25,17.0434783 C0.25,15.8089173 1.07658851,14.7674164 2.20652174,14.4422194 Z M2.95652174,4.16304348 C3.6228653,4.16304348 4.16304348,3.6228653 4.16304348,2.95652174 C4.16304348,2.29017818 3.6228653,1.75 2.95652174,1.75 C2.29017818,1.75 1.75,2.29017818 1.75,2.95652174 C1.75,3.6228653 2.29017818,4.16304348 2.95652174,4.16304348 Z M11.5652174,4.16304348 C12.2315609,4.16304348 12.7717391,3.6228653 12.7717391,2.95652174 C12.7717391,2.29017818 12.2315609,1.75 11.5652174,1.75 C10.8988738,1.75 10.3586957,2.29017818 10.3586957,2.95652174 C10.3586957,3.6228653 10.8988738,4.16304348 11.5652174,4.16304348 Z M2.95652174,18.25 C3.6228653,18.25 4.16304348,17.7098218 4.16304348,17.0434783 C4.16304348,16.3771347 3.6228653,15.8369565 2.95652174,15.8369565 C2.29017818,15.8369565 1.75,16.3771347 1.75,17.0434783 C1.75,17.7098218 2.29017818,18.25 2.95652174,18.25 Z"/>
</svg>
