<svg xmlns="http://www.w3.org/2000/svg" width="24" height="22" viewBox="0 0 24 22">
  <path d="M3.95051525,6.70709089 L20.034135,6.70709089 L20.034135,5.84238014 L11.93572,5.84238014 L10.0333564,2.9888347 L3.95051525,2.9888347 L3.95051525,6.70709089 Z M1.96168055,6.70709089 L1.96168055,1 L11.0977484,1 L13.0001121,3.85354544 L22.0229697,3.85354544 L22.0229697,6.70709089 L24,6.70709089 L23.9227327,7.77337902 L23.207248,17.6427979 C22.9658842,20.1167764 20.9077016,22.012471 18.4128024,22.012471 L5.42917062,22.012471 C2.91559679,22.012471 0.813744226,20.0933882 0.631692747,17.6037908 L0,6.70709089 L1.96168055,6.70709089 Z M2.10745633,8.69592559 L2.61620932,17.4736718 C2.72065917,18.9011531 3.95004554,20.0236363 5.42917062,20.0236363 L18.4128024,20.0236363 C19.8775372,20.0236363 21.0852142,18.9113022 21.2257129,17.4743692 L21.861832,8.69592559 L2.10745633,8.69592559 Z" transform="translate(0 -1)"/>
</svg>
