<svg xmlns="http://www.w3.org/2000/svg" width="20" height="20" viewBox="0 0 20 20">
  <path d="M17.4890153,7.74935466 L19.75,7.91327605 L19.75,11.9871608 L19.0560925,12.0392038 L17.4818356,12.1572182 C17.168588,12.1769093 16.8905215,12.3555555 16.7408696,12.6251897 L16.6834204,12.7687468 C16.5501972,13.0892441 16.6093503,13.4574929 16.8335945,13.7170898 L18.3194488,15.4184497 L15.4361342,18.3077215 L14.9077259,17.8480062 L13.7371721,16.829607 C13.4740818,16.6034415 13.1058752,16.5451283 12.7857759,16.6789334 L12.66369,16.7299667 C12.3981881,16.8831216 12.2224341,17.1590512 12.1998238,17.4687839 L12.0364774,19.75 L7.96898015,19.75 L7.91053085,19.0636383 L7.77265226,17.4434196 C7.75068905,17.1254415 7.57092182,16.8424394 7.29855294,16.6862441 L7.18820971,16.6403769 C6.86771239,16.5071537 6.49946358,16.5663068 6.23986674,16.790551 L4.537961,18.276882 L1.65268318,15.3916042 L2.1137968,14.8636115 L3.13636218,13.6927517 C3.36325844,13.4301016 3.42241153,13.0618528 3.28918827,12.7413555 L3.23526732,12.611637 C3.0854664,12.3514411 2.81494805,12.1789391 2.50912493,12.1565951 L0.25,11.9871608 L0.25,7.91327605 L0.945767343,7.86283292 L2.50560716,7.74976398 C2.85830876,7.72164218 3.16301089,7.4922785 3.29701436,7.13734015 C3.43023762,6.81684283 3.37108453,6.44859401 3.14684028,6.18899717 L1.65429586,4.47997685 L4.58803077,1.62360209 L5.10899717,2.07857941 L6.27985699,3.10114479 C6.54250706,3.32804105 6.91075587,3.38719414 7.23795108,3.25122456 C7.55455077,3.12319111 7.77103786,2.82655421 7.79637119,2.48668501 L7.96100029,0.25 L12.0283605,0.25 L12.0856702,0.93771589 L12.2152347,2.49272948 C12.2376638,2.78785189 12.4061066,3.04906477 12.6589197,3.1926087 L12.8000512,3.25005784 C13.1205485,3.3832811 13.4887973,3.32412801 13.7483941,3.09988376 L15.4508429,1.6130785 L18.346843,4.51502524 L17.8862032,5.04247543 L16.8636378,6.21333525 C16.6367416,6.47598532 16.5775885,6.84423413 16.7108117,7.16473145 L16.7647401,7.29446778 C16.9145206,7.55465194 17.1848413,7.72713236 17.4890153,7.74935466 Z M18.25,9.30846302 L17.3801351,9.24539776 C16.4685875,9.17880234 15.6728975,8.60291625 15.3247898,7.75782742 L15.2682609,7.62059403 C14.9947415,6.7808653 15.1663115,5.88357144 15.7311881,5.22969848 L16.2957657,4.58323563 L15.380458,3.66604846 L14.7320309,4.23233347 C14.0810286,4.7947167 13.1839052,4.9661377 12.3767537,4.6926087 L12.2159884,4.6397322 C11.3694363,4.30381826 10.7885664,3.51454464 10.719982,2.61184933 L10.6481612,1.75 L9.35465174,1.75 L9.29227303,2.59748762 C9.22445734,3.50730714 8.64610955,4.29977607 7.80700768,4.6390726 C6.96222597,4.99022865 5.99157868,4.8343102 5.29622022,4.2335945 L4.64327358,3.66335444 L3.71874406,4.56350488 L4.27928999,5.2053604 C4.87735367,5.89766563 5.03327213,6.86831293 4.69152839,7.68931531 C4.36225174,8.56452129 3.55696756,9.17069674 2.61945005,9.24542795 L1.75,9.30846308 L1.75,10.5954486 L2.61986489,10.6606892 C3.53141255,10.7272846 4.32710249,11.3031707 4.67521016,12.1482595 L4.73173913,12.2854929 C5.00525846,13.1252217 4.83368853,14.0225155 4.2688119,14.6763885 L3.70470813,15.3223088 L4.60725986,16.2248606 L5.25622997,15.6581013 C5.9072323,15.0957181 6.80435566,14.9242971 7.61150714,15.1978261 L7.7911045,15.2584728 C8.63516855,15.6202332 9.20580783,16.4239198 9.2681648,17.3281009 L9.34667203,18.25 L10.6400446,18.25 L10.7037294,17.3606147 C10.7703182,16.4484067 11.3429585,15.6506445 12.1859235,15.2957259 L12.3255063,15.2369565 C13.1664678,14.9623355 14.0633414,15.1319337 14.7183611,15.6950373 L15.3638658,16.2566263 L16.2683808,15.3502425 L15.7011448,14.7007266 C15.1387616,14.0497242 14.9673406,13.1526009 15.2408696,12.3454494 L15.2926401,12.1874877 C15.634959,11.3145782 16.4519449,10.7189976 17.3786901,10.6607962 L18.25,10.5954479 L18.25,9.30846302 Z M10,13.4891304 C8.07300647,13.4891304 6.51086957,11.9269935 6.51086957,10 C6.51086957,8.07300647 8.07300647,6.51086957 10,6.51086957 C11.9269935,6.51086957 13.4891304,8.07300647 13.4891304,10 C13.4891304,11.9269935 11.9269935,13.4891304 10,13.4891304 Z M10,11.9891304 C11.0985664,11.9891304 11.9891304,11.0985664 11.9891304,10 C11.9891304,8.9014336 11.0985664,8.01086957 10,8.01086957 C8.9014336,8.01086957 8.01086957,8.9014336 8.01086957,10 C8.01086957,11.0985664 8.9014336,11.9891304 10,11.9891304 Z"/>
</svg>
