<svg xmlns="http://www.w3.org/2000/svg" width="19" height="18" viewBox="0 0 19 18">
  <path d="M4.93299464,14 C5.39230655,13.1654748 6.28011642,12.6 7.3,12.6 L16.3,12.6 C17.7911688,12.6 19,13.8088312 19,15.3 C19,16.7911688 17.7911688,18 16.3,18 L7.3,18 C6.05092821,18 4.99995893,17.1518224 4.69162506,16 L0,16 L0,0 L2,0 L2,2 L4.69162506,2 C4.99995893,0.84817764 6.05092821,1.11762918e-15 7.3,8.8817842e-16 L16.3,0 C17.7911688,-2.73923269e-16 19,1.20883118 19,2.7 C19,4.19116882 17.7911688,5.4 16.3,5.4 L7.3,5.4 C6.28011642,5.4 5.39230655,4.83452525 4.93299464,4 L2,4 L2,8 L4.79123863,8 C5.18864156,7.00389084 6.16211952,6.3 7.3,6.3 L16.3,6.3 C17.7911688,6.3 19,7.50883118 19,9 C19,10.4911688 17.7911688,11.7 16.3,11.7 L7.3,11.7 C6.16211952,11.7 5.18864156,10.9961092 4.79123863,10 L2,10 L2,14 L4.93299464,14 Z M7.3,1.5 C6.6372583,1.5 6.1,2.0372583 6.1,2.7 C6.1,3.3627417 6.6372583,3.9 7.3,3.9 L16.3,3.9 C16.9627417,3.9 17.5,3.3627417 17.5,2.7 C17.5,2.0372583 16.9627417,1.5 16.3,1.5 L7.3,1.5 Z M7.3,7.8 C6.6372583,7.8 6.1,8.3372583 6.1,9 C6.1,9.6627417 6.6372583,10.2 7.3,10.2 L16.3,10.2 C16.9627417,10.2 17.5,9.6627417 17.5,9 C17.5,8.3372583 16.9627417,7.8 16.3,7.8 L7.3,7.8 Z M7.3,14.1 C6.6372583,14.1 6.1,14.6372583 6.1,15.3 C6.1,15.9627417 6.6372583,16.5 7.3,16.5 L16.3,16.5 C16.9627417,16.5 17.5,15.9627417 17.5,15.3 C17.5,14.6372583 16.9627417,14.1 16.3,14.1 L7.3,14.1 Z"/>
</svg>
