<?xml version="1.0" encoding="UTF-8"?>
<svg width="24px" height="24px" viewBox="0 0 24 24" version="1.1" xmlns="http://www.w3.org/2000/svg" xmlns:xlink="http://www.w3.org/1999/xlink">
    <!-- Generator: Sketch 50.2 (55047) - http://www.bohemiancoding.com/sketch -->
    <title>ic-copy</title>
    <desc>Created with Sketch.</desc>
    <defs></defs>
    <g id="New-UI-Kit" stroke="none" stroke-width="1" fill="none" fill-rule="evenodd">
        <g id="Icons" transform="translate(-100.000000, -533.000000)">
            <g id="copy" transform="translate(100.000000, 533.000000)">
                <g id="icon/copy">
                    <rect id="Rectangle-18" fill="#FFFFFF" opacity="0" x="0" y="0" width="24" height="24"></rect>
                    <g id="copy" stroke-width="1" transform="translate(3.000000, 3.000000)" stroke="#627098">
                        <path d="M0.818181818,18 L0,18 L0,17.1818182" id="Shape" stroke-width="1.5" stroke-dasharray="2,3"></path>
                        <path d="M0,15.5454545 L0,8.49847851 C0,7.19931533 1.06206294,6.13636364 2.36013986,6.13636364 L10.2272727,6.13636364" id="Shape" stroke-width="1.5" stroke-dasharray="2,3"></path>
                        <path d="M11.0454545,6.13636364 L11.8636364,6.13636364 L11.8636364,6.95454545" id="Shape" stroke-width="1.5" stroke-dasharray="2,3"></path>
                        <path d="M11.8636364,8.59090909 L11.8636364,15.6378851 C11.8636364,16.9370483 10.8015734,18 9.5034965,18 L1.63636364,18" id="Shape" stroke-width="1.5" stroke-dasharray="2,3"></path>
                        <path d="M6.13636364,5.93181818 L6.13636364,1.97727273 C6.13636364,0.87 7.00636364,0 8.11363636,0 L18,0 L18,9.88636364 C18,10.9936364 17.13,11.8636364 16.0227273,11.8636364 L12.0681818,11.8636364" id="Shape" stroke-width="1.5"></path>
                    </g>
                </g>
                <rect id="Rectangle-9" fill="#D8D8D8" opacity="0" x="0" y="0" width="24" height="24"></rect>
            </g>
        </g>
    </g>
</svg>