<?xml version="1.0" encoding="UTF-8"?>
<svg width="42px" height="42px" viewBox="0 0 42 42" version="1.1" xmlns="http://www.w3.org/2000/svg" xmlns:xlink="http://www.w3.org/1999/xlink">
    <!-- Generator: Sketch 50.2 (55047) - http://www.bohemiancoding.com/sketch -->
    <title>ic-color-square</title>
    <desc>Created with Sketch.</desc>
    <defs></defs>
    <g id="New-UI-Kit" stroke="none" stroke-width="1" fill="none" fill-rule="evenodd">
        <g id="Icons" transform="translate(-593.000000, -943.000000)">
            <g id="Color" transform="translate(593.000000, 943.000000)">
                <g id="icon/content/color">
                    <g>
                        <rect id="Rectangle-5-Copy" fill="#1F346C" opacity="0.049999997" x="0" y="0" width="42" height="42" rx="4"></rect>
                        <g id="paint-bucket" transform="translate(12.000000, 12.000000)">
                            <path d="M13.9787234,17.4255319 C13.2510638,16.6978723 13.2510638,15.4723404 13.9787234,14.7446809 L15.3191489,13.4042553 L16.6595745,14.7446809 C17.387234,15.4723404 17.387234,16.6978723 16.6595745,17.4255319 C15.9319149,18.1914894 14.706383,18.1914894 13.9787234,17.4255319 C13.9787234,17.4255319 13.9787234,17.4255319 13.9787234,17.4255319 Z" id="Shape" stroke="#627098" stroke-width="1.5"></path>
                            <circle id="Oval" fill="#627098" fill-rule="nonzero" cx="8.04255319" cy="9.57446809" r="1.14893617"></circle>
                            <path d="M8.04255319,9.57446809 L8.04255319,0" id="Shape" stroke="#627098" stroke-width="1.5"></path>
                            <path d="M13.7489362,10.9914894 L8.3106383,16.4297872 C7.12340426,17.6170213 5.17021277,17.6170213 3.98297872,16.4297872 L1.26382979,13.7106383 C0.0765957447,12.5234043 0.0765957447,10.5702128 1.26382979,9.38297872 L6.66382979,3.98297872" id="Shape" stroke="#627098" stroke-width="1.5"></path>
                            <path d="M5.62978723,2.87234043 L14.8212766,12.0638298" id="Shape" stroke="#627098" stroke-width="1.5"></path>
                        </g>
                    </g>
                </g>
            </g>
        </g>
    </g>
</svg>