<?xml version="1.0" encoding="UTF-8"?>
<svg width="42px" height="42px" viewBox="0 0 42 42" version="1.1" xmlns="http://www.w3.org/2000/svg" xmlns:xlink="http://www.w3.org/1999/xlink">
    <!-- Generator: Sketch 50.2 (55047) - http://www.bohemiancoding.com/sketch -->
    <title>ic-document-square</title>
    <desc>Created with Sketch.</desc>
    <defs></defs>
    <g id="New-UI-Kit" stroke="none" stroke-width="1" fill="none" fill-rule="evenodd">
        <g id="Icons" transform="translate(-377.000000, -943.000000)">
            <g id="Document" transform="translate(377.000000, 943.000000)">
                <g id="icon/content/document">
                    <g>
                        <rect id="Rectangle-5-Copy" fill="#1F346C" opacity="0.049999997" x="0" y="0" width="42" height="42" rx="4"></rect>
                        <g id="file" transform="translate(12.000000, 11.000000)">
                            <path d="M15.8070501,20.5714286 L1.55844156,20.5714286 C0.821966605,20.5714286 0.222634508,19.9694907 0.222634508,19.2298137 L0.222634508,18.431995 L0.222634508,1.34161491 C0.222634508,0.601937888 0.821966605,0 1.55844156,0 L11.3543599,0 C11.4723562,0 11.5858998,0.0469565217 11.6691651,0.131031056 L17.0123933,5.49749068 C17.0961039,5.58111801 17.1428571,5.69470807 17.1428571,5.8136646 L17.1428571,19.2298137 C17.1428571,19.9694907 16.543525,20.5714286 15.8070501,20.5714286 Z" id="Combined-Shape" stroke="#627098" stroke-width="1.5"></path>
                            <rect id="Path" fill="#627098" x="4.08163265" y="6.51428571" width="9.79591837" height="1.64571429" rx="0.822857143"></rect>
                            <rect id="Path" fill="#627098" x="4.08163265" y="9.80571429" width="9.79591837" height="1.64571429" rx="0.822857143"></rect>
                            <rect id="Path" fill="#627098" x="4.08163265" y="13.0971429" width="5.71428571" height="1.64571429" rx="0.822857143"></rect>
                        </g>
                    </g>
                </g>
            </g>
        </g>
    </g>
</svg>