<?xml version="1.0" encoding="UTF-8"?>
<svg width="24px" height="24px" viewBox="0 0 24 24" version="1.1" xmlns="http://www.w3.org/2000/svg" xmlns:xlink="http://www.w3.org/1999/xlink">
    <!-- Generator: Sketch 50.2 (55047) - http://www.bohemiancoding.com/sketch -->
    <title>ic-key</title>
    <desc>Created with Sketch.</desc>
    <defs></defs>
    <g id="New-UI-Kit" stroke="none" stroke-width="1" fill="none" fill-rule="evenodd">
        <g id="Icons" transform="translate(-856.000000, -533.000000)">
            <g id="key" transform="translate(856.000000, 533.000000)">
                <g id="icon/key">
                    <rect id="Rectangle-18" fill="#FFFFFF" opacity="0" x="0" y="0" width="24" height="24"></rect>
                    <g stroke-width="1" transform="translate(3.000000, 3.000000)" stroke="#627098">
                        <circle id="Oval" stroke-width="1.5" cx="14" cy="4.804" r="1.2"></circle>
                        <path d="M16.672,10.456 C18.8000251,8.32827077 18.9842046,4.93940192 17.0993099,2.59357704 C15.2144152,0.247752153 11.8653913,-0.302151042 9.32933026,1.31776151 C6.79326918,2.93767406 5.88410369,6.20750162 7.22,8.904 L5.668,10.456 L5.4,12.324 L3.532,12.592 L3.268,14.456 L1.4,14.724 L0,16.124 L1.316,17.44 C1.67457052,17.7985768 2.16090027,18.0000237 2.668,18.0000237 C3.17509973,18.0000237 3.66142948,17.7985768 4.02,17.44 L9.888,11.568 C12.1538297,12.6903902 14.8830677,12.2430269 16.672,10.456 Z" id="Shape" stroke-width="1.5"></path>
                    </g>
                </g>
                <rect id="Rectangle-9-Copy-9" fill="#D8D8D8" opacity="0" x="0" y="0" width="24" height="24"></rect>
            </g>
        </g>
    </g>
</svg>