<?xml version="1.0" encoding="UTF-8"?>
<svg width="42px" height="42px" viewBox="0 0 42 42" version="1.1" xmlns="http://www.w3.org/2000/svg" xmlns:xlink="http://www.w3.org/1999/xlink">
    <!-- Generator: Sketch 50.2 (55047) - http://www.bohemiancoding.com/sketch -->
    <title>ic-list-square</title>
    <desc>Created with Sketch.</desc>
    <defs></defs>
    <g id="New-UI-Kit" stroke="none" stroke-width="1" fill="none" fill-rule="evenodd">
        <g id="Icons" transform="translate(-882.000000, -943.000000)">
            <g id="List" transform="translate(882.000000, 943.000000)">
                <g id="icon/content/list">
                    <g>
                        <rect id="Rectangle-5-Copy" fill="#1F346C" opacity="0.049999997" x="0" y="0" width="42" height="42" rx="4"></rect>
                        <g id="Group-2" transform="translate(9.000000, 13.000000)" fill="#627098">
                            <path d="M2.80833333,13.826913 C2.39015152,13.826913 2.05075758,14.1587826 2.05075758,14.5660435 C2.05075758,14.9733043 2.39015152,15.3051739 2.80833333,15.3051739 C3.22651515,15.3051739 3.56590909,14.9733043 3.56590909,14.5660435 C3.56590909,14.1587826 3.22651515,13.826913 2.80833333,13.826913 M2.80833333,16.7834348 C1.55530303,16.7834348 0.535606061,15.7885652 0.535606061,14.5660435 C0.535606061,13.3435217 1.55530303,12.3486522 2.80833333,12.3486522 C4.06136364,12.3486522 5.08106061,13.3435217 5.08106061,14.5660435 C5.08106061,15.7885652 4.06136364,16.7834348 2.80833333,16.7834348" id="Fill-1"></path>
                            <path d="M2.05075758,8.653 C2.05075758,9.06026087 2.39015152,9.39213043 2.80833333,9.39213043 C3.22651515,9.39213043 3.56590909,9.06026087 3.56590909,8.653 C3.56590909,8.24573913 3.22651515,7.91386957 2.80833333,7.91386957 C2.39015152,7.91386957 2.05075758,8.24573913 2.05075758,8.653 Z M0.535606061,8.653 C0.535606061,7.43047826 1.55530303,6.4356087 2.80833333,6.4356087 C4.06136364,6.4356087 5.08106061,7.43047826 5.08106061,8.653 C5.08106061,9.87552174 4.06136364,10.8703913 2.80833333,10.8703913 C1.55530303,10.8703913 0.535606061,9.87552174 0.535606061,8.653 Z" id="Fill-3"></path>
                            <polygon id="Fill-5" points="6.59621212 4.00082609 23.5962121 4.00082609 23.5962121 2.00082609 6.59621212 2.00082609"></polygon>
                            <polygon id="Fill-7" points="6.59621212 9.91386957 23.5962121 9.91386957 23.5962121 7.91386957 6.59621212 7.91386957"></polygon>
                            <polygon id="Fill-8" points="6.59621212 15.826913 23.5962121 15.826913 23.5962121 13.826913 6.59621212 13.826913"></polygon>
                            <polygon id="Fill-9" stroke="#627098" stroke-width="0.5" points="2.05075758 4.5242913 0 2.52346522 1.07121212 1.47833478 2.05075758 2.43403043 4.54545455 7.39130435e-05 5.61666667 1.04520435"></polygon>
                        </g>
                    </g>
                </g>
            </g>
        </g>
    </g>
</svg>