<?xml version="1.0" encoding="UTF-8"?>
<svg width="24px" height="24px" viewBox="0 0 24 24" version="1.1" xmlns="http://www.w3.org/2000/svg" xmlns:xlink="http://www.w3.org/1999/xlink">
    <!-- Generator: Sketch 50.2 (55047) - http://www.bohemiancoding.com/sketch -->
    <title>ic-member</title>
    <desc>Created with Sketch.</desc>
    <defs></defs>
    <g id="New-UI-Kit" stroke="none" stroke-width="1" fill="none" fill-rule="evenodd">
        <g id="Icons" transform="translate(-1024.000000, -533.000000)">
            <g id="member" transform="translate(1024.000000, 533.000000)">
                <g id="icon/members">
                    <rect id="Rectangle-18" fill="#FFFFFF" opacity="0" x="0" y="0" width="24" height="24"></rect>
                    <g id="users" stroke-width="1" transform="translate(1.000000, 4.000000)" stroke="#627098">
                        <path d="M10.4892857,3.02040816 C10.5285714,1.3877551 9.23214286,0 7.66071429,0 C7.62142857,0 7.58214286,0 7.54285714,0 C5.93214286,0 4.51785714,1.34693878 4.59642857,3.02040816 C4.59642857,3.34693878 4.91071429,5.06122449 4.91071429,5.06122449 C5.14642857,6.53061224 6.08928571,7.75510204 7.54285714,7.75510204 C8.99642857,7.75510204 9.9,6.53061224 10.175,5.06122449 C10.175,5.06122449 10.4892857,3.3877551 10.4892857,3.02040816 Z" id="Shape" stroke-width="1.5"></path>
                        <path d="M14.8107143,15.5102041 L0.275,15.5102041 L0.510714286,12.5714286 C0.628571429,11.4693878 1.72857143,10.6938776 2.82857143,10.4897959 L7.54285714,9.83673469 L12.2964286,10.4897959 C13.5142857,10.7346939 14.575,11.4285714 14.6535714,12.6938776 L14.8107143,15.5102041 Z" id="Shape" stroke-width="1.5"></path>
                        <path d="M18.15,5.06122449 C18.15,3.71428571 17.0892857,2.6122449 15.7928571,2.6122449 C14.4964286,2.6122449 13.4357143,3.71428571 13.4357143,5.06122449 C13.4357143,5.34693878 13.7107143,6.65306122 13.7107143,6.65306122 C13.9071429,7.79591837 14.6535714,8.7755102 15.7928571,8.7755102 C16.9321429,8.7755102 17.6785714,7.79591837 17.875,6.65306122 C17.9142857,6.65306122 18.15,5.30612245 18.15,5.06122449 Z" id="Shape" stroke-width="1.5"></path>
                        <path d="M15.7928571,10.6122449 L19.6821429,11.1020408 C20.625,11.2653061 21.4892857,11.8367347 21.5678571,12.8979592 L21.6857143,15.5102041 L17.1678571,15.5102041" id="Shape" stroke-width="1.5"></path>
                    </g>
                </g>
                <rect id="Rectangle-9-Copy-11" fill="#D8D8D8" opacity="0" x="0" y="0" width="24" height="24"></rect>
            </g>
        </g>
    </g>
</svg>