<?xml version="1.0" encoding="UTF-8"?>
<svg width="42px" height="42px" viewBox="0 0 42 42" version="1.1" xmlns="http://www.w3.org/2000/svg" xmlns:xlink="http://www.w3.org/1999/xlink">
    <!-- Generator: Sketch 50.2 (55047) - http://www.bohemiancoding.com/sketch -->
    <title>ic-map-square</title>
    <desc>Created with Sketch.</desc>
    <defs></defs>
    <g id="New-UI-Kit" stroke="none" stroke-width="1" fill="none" fill-rule="evenodd">
        <g id="Icons" transform="translate(-738.000000, -943.000000)">
            <g id="Map" transform="translate(738.000000, 943.000000)">
                <g id="icon/content/map">
                    <g>
                        <rect id="Rectangle-5-Copy" fill="#1F346C" opacity="0.049999997" x="0" y="0" width="42" height="42" rx="4"></rect>
                        <g id="Group-4" transform="translate(12.000000, 11.000000)" fill-rule="nonzero" stroke="#627098" stroke-width="1.5">
                            <path d="M12.5608966,3.94158874 C12.687805,3.53694508 12.7848533,3.33949828 12.7848533,2.97385624 C12.7848533,1.21309455 11.1823621,0.0637723476 9.55033965,0.112616438 C8.81678483,0.134570681 8.07726386,0.3985888 7.4746125,0.957949699 C6.91969993,1.47472383 6.57381311,2.18650691 6.57381311,2.97385624 C6.57381311,4.39986023 8.84323163,7.49319236 9.67933277,8.5121144 C10.547783,7.4541903 11.9935422,5.43097064 12.5608966,3.94158874 Z M10.1107724,2.74487025 C10.5400642,3.16540133 10.1673611,3.70826842 10.1107724,3.70826842 C9.84148936,3.97205625 9.41024569,3.97587894 9.12730308,3.70826842 C8.4794627,3.09085238 9.45512597,2.10260468 10.1107724,2.74487025 Z" id="Shape"></path>
                            <path d="M9.31851497,12.4698128 C9.50265613,12.6867607 9.84356659,12.6916355 10.0351732,12.4771251 C10.9061126,11.4996425 12.4787793,9.36916806 13.2427175,7.68233891 L17.938323,10.3954032 L17.938323,20.1872971 L12.3842209,16.9818358 L11.898983,16.976961 L5.86213122,20.4603097 L0.0616768105,17.1134665 L0.0616768105,7.31913473 L5.61826795,10.5270347 L5.90194561,10.59285 C6.16820414,10.5709116 7.00430528,10.0078227 7.32779664,9.82256385 C8.04196689,10.9073021 8.82332429,11.9115988 9.31851497,12.4698128 Z" id="Shape"></path>
                        </g>
                    </g>
                </g>
            </g>
        </g>
    </g>
</svg>