<?xml version="1.0" encoding="UTF-8"?>
<svg width="24px" height="24px" viewBox="0 0 24 24" version="1.1" xmlns="http://www.w3.org/2000/svg" xmlns:xlink="http://www.w3.org/1999/xlink">
    <!-- Generator: Sketch 50.2 (55047) - http://www.bohemiancoding.com/sketch -->
    <title>ic-notifications</title>
    <desc>Created with Sketch.</desc>
    <defs></defs>
    <g id="New-UI-Kit" stroke="none" stroke-width="1" fill="none" fill-rule="evenodd">
        <g id="Icons" transform="translate(-1276.000000, -533.000000)">
            <g id="notifications" transform="translate(1276.000000, 533.000000)">
                <g id="icon/notifications">
                    <rect id="Rectangle-18" fill="#FFFFFF" opacity="0" x="0" y="0" width="24" height="24"></rect>
                    <g id="bell" stroke-width="1" transform="translate(4.000000, 3.000000)" stroke="#627098">
                        <path d="M16.4347826,13.3434783 L16.4347826,14.8695652 L0,14.8695652 L0,13.3434783 C0,12.2869565 0.430434783,11.3086957 1.13478261,10.5652174 L2.73913043,8.96086957 C3.4826087,8.2173913 3.87391304,7.23913043 3.87391304,6.1826087 L3.87391304,4.30434783 C3.87391304,1.9173913 5.79130435,0 8.17826087,0 C10.5652174,0 12.4826087,1.9173913 12.4826087,4.30434783 L12.4826087,6.22173913 C12.4826087,7.27826087 12.9130435,8.25652174 13.6173913,9 L15.2217391,10.6043478 C16.0043478,11.3086957 16.4347826,12.326087 16.4347826,13.3434783 Z" id="Shape" stroke-width="1.5"></path>
                        <path d="M5.86956522,14.8695652 L5.86956522,15.6521739 C5.86956522,16.9434783 6.92608696,18 8.2173913,18 C9.50869565,18 10.5652174,16.9434783 10.5652174,15.6521739 L10.5652174,14.8695652" id="Shape" stroke-width="1.5"></path>
                    </g>
                </g>
                <rect id="Rectangle-9-Copy-14" fill="#D8D8D8" opacity="0" x="0" y="0" width="24" height="24"></rect>
            </g>
        </g>
    </g>
</svg>