<?xml version="1.0" encoding="UTF-8"?>
<svg width="24px" height="24px" viewBox="0 0 24 24" version="1.1" xmlns="http://www.w3.org/2000/svg" xmlns:xlink="http://www.w3.org/1999/xlink">
    <!-- Generator: Sketch 50.2 (55047) - http://www.bohemiancoding.com/sketch -->
    <title>ic-search</title>
    <desc>Created with Sketch.</desc>
    <defs></defs>
    <g id="New-UI-Kit" stroke="none" stroke-width="1" fill="none" fill-rule="evenodd">
        <g id="Icons" transform="translate(-100.000000, -609.000000)">
            <g id="search" transform="translate(100.000000, 609.000000)">
                <g id="icon/search">
                    <rect id="Rectangle-18" fill="#FFFFFF" opacity="0" x="0" y="0" width="24" height="24"></rect>
                    <g stroke-width="1" transform="translate(3.000000, 3.000000)">
                        <rect id="Guide" x="0" y="0" width="18" height="18"></rect>
                        <g id="Group" transform="translate(1.000000, 0.000000)" stroke="#627098" stroke-width="1.5">
                            <path d="M11.5399827,11.5399827 C13.6644348,9.41553052 13.6644348,5.97111304 11.5399827,3.84666089 C9.41553052,1.72220874 5.97111304,1.72220874 3.84666089,3.84666089 C1.72220874,5.97111304 1.72220874,9.41553052 3.84666089,11.5399827 C5.97111304,13.6644348 9.41553052,13.6644348 11.5399827,11.5399827 Z" id="Oval-2" transform="translate(7.693322, 7.693322) rotate(-45.000000) translate(-7.693322, -7.693322) "></path>
                            <path d="M13.7748737,10.8284271 L13.7748737,16.4426108" id="Line" transform="translate(13.474874, 13.828427) rotate(-45.000000) translate(-13.474874, -13.828427) "></path>
                        </g>
                    </g>
                </g>
                <rect id="Rectangle-9" fill="#D8D8D8" opacity="0" x="0" y="0" width="24" height="24"></rect>
            </g>
        </g>
    </g>
</svg>