<?xml version="1.0" encoding="UTF-8"?>
<svg width="24px" height="24px" viewBox="0 0 24 24" version="1.1" xmlns="http://www.w3.org/2000/svg" xmlns:xlink="http://www.w3.org/1999/xlink">
    <!-- Generator: Sketch 50.2 (55047) - http://www.bohemiancoding.com/sketch -->
    <title>ic-settings</title>
    <desc>Created with Sketch.</desc>
    <defs></defs>
    <g id="New-UI-Kit" stroke="none" stroke-width="1" fill="none" fill-rule="evenodd">
        <g id="Icons" transform="translate(-268.000000, -609.000000)">
            <g id="settings" transform="translate(268.000000, 609.000000)">
                <g id="icon/settings">
                    <rect id="Rectangle-18" fill="#FFFFFF" opacity="0" x="0" y="0" width="24" height="24"></rect>
                    <g id="purple" stroke-width="1" transform="translate(3.000000, 3.000000)" stroke="#627098">
                        <circle id="Oval" stroke-width="1.5" cx="9" cy="9" r="2.73913043"></circle>
                        <path d="M18,10.2913043 L18,7.61086957 L16.4347826,7.4973913 C15.8065538,7.45149446 15.2581729,7.0546 15.0182609,6.47217391 L15.0182609,6.4526087 C14.7760712,5.86996918 14.883607,5.20052113 15.296087,4.72304348 L16.3213043,3.54913043 L14.4156522,1.63956522 L13.2417391,2.66478261 C12.7642615,3.07726258 12.0948134,3.18479835 11.5121739,2.9426087 L11.4926087,2.9426087 C10.9126325,2.71247269 10.5146761,2.17173813 10.4673913,1.54956522 L10.3382609,0 L7.65782609,0 L7.54434783,1.54173913 C7.4977476,2.16693068 7.10033016,2.71148359 6.51913043,2.94652174 C5.93649092,3.1887114 5.26704287,3.08117562 4.78956522,2.66869565 L3.61565217,1.64347826 L1.68652174,3.52173913 L2.71173913,4.69565217 C3.1242191,5.17312982 3.23175488,5.84257788 2.98956522,6.42521739 C2.76263132,7.02839989 2.20763816,7.44616946 1.56521739,7.4973913 L0,7.61086957 L0,10.2913043 L1.56521739,10.4086957 C2.19344618,10.4545925 2.74182708,10.851487 2.98173913,11.433913 L2.98173913,11.4534783 C3.22392879,12.0361178 3.11639302,12.7055658 2.70391304,13.1830435 L1.67869565,14.3569565 L3.5726087,16.2508696 L4.74652174,15.2256522 C5.22399939,14.8131722 5.89344744,14.7056364 6.47608696,14.9478261 L6.49565217,14.9478261 C7.08114573,15.1987648 7.47697542,15.7562501 7.52086957,16.3917391 L7.65782609,18 L10.3382609,18 L10.4517391,16.4152174 C10.4977979,15.7842532 10.8938868,15.2324498 11.4769565,14.9869565 L11.4965217,14.9869565 C12.0784377,14.7437091 12.7478089,14.8497181 13.226087,15.2608696 L14.4,16.2821739 L16.293913,14.3843478 L15.2686957,13.2104348 C14.8562157,12.7329571 14.7486799,12.0635091 14.9908696,11.4808696 L14.9908696,11.4613043 C15.2267921,10.8597046 15.78985,10.4492369 16.4347826,10.4086957 L18,10.2913043 Z" id="Shape" stroke-width="1.5"></path>
                    </g>
                </g>
                <rect id="Rectangle-9-Copy-16" fill="#D8D8D8" opacity="0" x="0" y="0" width="24" height="24"></rect>
            </g>
        </g>
    </g>
</svg>