<?xml version="1.0" encoding="UTF-8"?>
<svg width="24px" height="24px" viewBox="0 0 24 24" version="1.1" xmlns="http://www.w3.org/2000/svg" xmlns:xlink="http://www.w3.org/1999/xlink">
    <!-- Generator: Sketch 50.2 (55047) - http://www.bohemiancoding.com/sketch -->
    <title>ic-trash</title>
    <desc>Created with Sketch.</desc>
    <defs></defs>
    <g id="New-UI-Kit" stroke="none" stroke-width="1" fill="none" fill-rule="evenodd">
        <g id="Icons" transform="translate(-688.000000, -609.000000)">
            <g id="trash" transform="translate(688.000000, 609.000000)">
                <g id="icon/trash/default">
                    <rect id="Rectangle-18" fill="#FFFFFF" opacity="0" x="0" y="0" width="24" height="24"></rect>
                    <g id="icon/trash" stroke-width="1" transform="translate(4.000000, 3.000000)" stroke="#627098">
                        <path d="M14.0869565,2.34782609 L13.4530435,15.026087 C13.3695664,16.6935658 11.9921744,18.0020882 10.3226087,18 L5.32565217,18 C3.65608646,18.0020882 2.27869444,16.6935658 2.19521739,15.026087 L1.56521739,2.34782609" id="Shape" stroke-width="1.5"></path>
                        <path d="M0,2.34782609 L15.6521739,2.34782609" id="Shape" stroke-width="1.5"></path>
                        <path d="M5.67391304,5.47826087 L6.17391304,14.0869565" id="Shape" stroke-width="1.5"></path>
                        <path d="M10.0869565,5.47826087 L9.58695652,14.0869565" id="Shape" stroke-width="1.5"></path>
                        <path d="M4.69565217,2.3499999 L5.12217391,1.07316662 C5.33434009,0.433317428 5.9316721,0.00107334006 6.60521739,0 L9.04304348,0 C9.71658877,0.00107334006 10.3139208,0.433317428 10.526087,1.07316662 L10.9565217,2.3499999" id="Shape" stroke-width="1.5"></path>
                    </g>
                </g>
                <rect id="Rectangle-9-Copy-21" fill="#D8D8D8" opacity="0" x="0" y="0" width="24" height="24"></rect>
            </g>
        </g>
    </g>
</svg>