<?xml version="1.0" encoding="UTF-8"?>
<svg width="24px" height="24px" viewBox="0 0 24 24" version="1.1" xmlns="http://www.w3.org/2000/svg" xmlns:xlink="http://www.w3.org/1999/xlink">
    <!-- Generator: Sketch 50.2 (55047) - http://www.bohemiancoding.com/sketch -->
    <title>ic-user</title>
    <desc>Created with Sketch.</desc>
    <defs></defs>
    <g id="New-UI-Kit" stroke="none" stroke-width="1" fill="none" fill-rule="evenodd">
        <g id="Icons" transform="translate(-772.000000, -609.000000)">
            <g id="user" transform="translate(772.000000, 609.000000)">
                <g id="icon/user">
                    <rect id="Rectangle-18" fill="#FFFFFF" opacity="0" x="0" y="0" width="24" height="24"></rect>
                    <g id="user-alt" stroke-width="1" transform="translate(3.000000, 3.000000)" stroke="#627098">
                        <circle id="Oval" stroke-width="1.5" cx="9" cy="9" r="9"></circle>
                        <path d="M11.7391304,5.08695652 C11.7782609,3.6 10.6043478,2.38695652 9.1173913,2.34782609 C9.07826087,2.34782609 9.03913043,2.34782609 9,2.34782609 C7.51304348,2.30869565 6.3,3.4826087 6.26086957,4.96956522 C6.26086957,5.00869565 6.26086957,5.04782609 6.26086957,5.08695652 C6.26086957,5.4 6.57391304,6.92608696 6.57391304,6.92608696 C6.80869565,8.25652174 7.66956522,9.39130435 9,9.39130435 C10.3304348,9.39130435 11.1913043,8.29565217 11.426087,6.92608696 C11.426087,6.92608696 11.7391304,5.4 11.7391304,5.08695652 Z" id="Shape" stroke-width="1.5"></path>
                        <path d="M2.34782609,15.0652174 L2.34782609,14.7913043 C2.34782609,13.5782609 3.24782609,12.6782609 4.46086957,12.3652174 L9,11.5434783 L13.5782609,12.4043478 C14.7521739,12.7565217 15.6521739,13.5782609 15.6521739,14.8304348 L15.6521739,15.1043478" id="Shape" stroke-width="1.5"></path>
                    </g>
                </g>
                <rect id="Rectangle-9-Copy-22" fill="#D8D8D8" opacity="0" x="0" y="0" width="24" height="24"></rect>
            </g>
        </g>
    </g>
</svg>