
<svg width="22px" height="21px" viewBox="0 0 22 21" version="1.1" xmlns="http://www.w3.org/2000/svg">
    <g id="Settings" stroke="none" stroke-width="1" fill="none" fill-rule="evenodd">
        <g id="Settings---Webhooks" transform="translate(-130.000000, -258.000000)" stroke="#1F346C">
            <g id="key" transform="translate(131.000000, 258.000000)">
                <circle id="Oval" cx="15.2173913" cy="5.22173913" r="1.30434783"></circle>
                <path d="M18.1217391,11.3652174 C20.4348099,9.05246823 20.635005,5.36891513 18.5862064,2.81910547 C16.5374078,0.269295818 12.8971645,-0.328425045 10.1405764,1.43234946 C7.38398824,3.19312398 6.39576488,6.74728437 7.84782609,9.67826087 L6.16086957,11.3652174 L5.86956522,13.3956522 L3.83913043,13.6869565 L3.55217391,15.7130435 L1.52173913,16.0043478 L0,17.526087 L1.43043478,18.9565217 C1.82018535,19.3462791 2.34880464,19.5652431 2.9,19.5652431 C3.45119536,19.5652431 3.97981465,19.3462791 4.36956522,18.9565217 L10.7478261,12.573913 C13.2106844,13.7939024 16.1772475,13.3076379 18.1217391,11.3652174 Z" id="Shape"></path>
            </g>
        </g>
    </g>
</svg>