<svg xmlns="http://www.w3.org/2000/svg" width="21" height="20" viewBox="0 0 21 20">
  <path fill-rule="evenodd" d="M8.32547233,9.7378675 C7.15849407,6.80370626 8.22174301,3.41279232 10.9256,1.68569989 C13.7842604,-0.140273451 17.5592965,0.479580116 19.683959,3.12380538 C21.8086215,5.76803065 21.6010135,9.58798017 19.2022932,11.986367 C17.3153705,13.8712799 14.5008529,14.4340426 12.0544312,13.4624771 L6.55033473,18.9703254 C6.05111155,19.4695574 5.37401437,19.7500237 4.668,19.7500237 C3.96198563,19.7500237 3.28488845,19.4695574 2.78566991,18.9703301 L0.939339828,17.124 L3.04626999,15.0170698 L4.60434061,14.7935351 L4.86834061,12.9295351 L6.73738521,12.6613852 L6.96106984,11.10227 L8.32547233,9.7378675 Z M16,7.754 C14.9230447,7.754 14.05,6.88095526 14.05,5.804 C14.05,4.72704474 14.9230447,3.854 16,3.854 C17.0769553,3.854 17.95,4.72704474 17.95,5.804 C17.95,6.88095526 17.0769553,7.754 16,7.754 Z M16,6.254 C16.2485281,6.254 16.45,6.05252814 16.45,5.804 C16.45,5.55547186 16.2485281,5.354 16,5.354 C15.7514719,5.354 15.55,5.55547186 15.55,5.804 C15.55,6.05252814 15.7514719,6.254 16,6.254 Z M18.5146608,4.06334869 C16.8695339,2.01592419 13.9465222,1.53597137 11.7330605,2.94982313 C9.51959878,4.36367489 8.72608358,7.21756441 9.89204735,9.57105503 L10.131093,10.0535672 L8.37493016,11.80973 L8.06261479,13.9866148 L6.19565939,14.2544649 L5.93165939,16.1184649 L3.75373001,16.4309302 L3.06066017,17.124 L3.84633473,17.9096746 C4.06425258,18.1275962 4.35981491,18.2500237 4.668,18.2500237 C4.97618509,18.2500237 5.27174742,18.1275962 5.48948925,17.9098506 L11.7382387,11.6568417 L12.2209105,11.8959356 C14.1984637,12.8755265 16.5804562,12.4851162 18.1418296,10.9255102 C19.9990438,9.06843093 20.1597514,6.11072804 18.5146608,4.06334869 Z" transform="translate(-1)"/>
</svg>
