<svg xmlns="http://www.w3.org/2000/svg" width="24" height="24" viewBox="0 0 24 24">
  <g fill-rule="evenodd" transform="translate(3 2)">
    <path fill-rule="nonzero" d="M8.66500955,10.6300127 L7.46499045,11.5299873 C6.17130366,9.8049953 6.32686562,7.39474511 7.83361856,5.84826514 L11.7128378,1.89784116 C12.5069194,1.08289392 13.5965241,0.623265875 14.734375,0.623265875 C15.8722259,0.623265875 16.9618306,1.08289392 17.7556477,1.89756988 C19.412163,3.59589524 19.412163,6.30535476 17.7696269,7.9889544 L15.1746269,10.7977044 L14.0728731,9.7797956 L16.6818523,6.95631988 C17.7700948,5.84061042 17.7700948,4.06063958 16.6815878,2.94465884 C16.1698464,2.41947061 15.4676567,2.12326588 14.734375,2.12326588 C14.0010933,2.12326588 13.2989036,2.41947061 12.7851314,2.94673486 L8.90593638,6.89713398 C7.91698748,7.91216291 7.81474582,9.49627765 8.66500955,10.6300127 Z M10.2115921,9.22837733 L11.2884079,8.18412267 C12.9331839,9.88018479 12.9331839,12.5760652 11.2858118,14.2747912 L7.53716216,18.1021588 C6.74308056,18.9171061 5.65347587,19.3767341 4.515625,19.3767341 C3.37777413,19.3767341 2.28816944,18.9171061 1.49435231,18.1024301 C-0.162162993,16.4041048 -0.162162993,13.6946452 1.48788818,12.00303 L3.98538818,9.37803004 L5.07211182,10.41197 L2.56814769,13.0436801 C1.47990522,14.1593896 1.47990522,15.9393604 2.56841216,17.0553412 C3.08015364,17.5805294 3.78234333,17.8767341 4.515625,17.8767341 C5.24890667,17.8767341 5.95109636,17.5805294 6.46418823,17.0539588 L10.2115921,13.2278727 C11.2921225,12.11365 11.2921225,10.3426 10.2115921,9.22837733 Z"/>
    <path fill-rule="nonzero" d="M9.19452033,10.8424761 L7.75297967,12.2575239 C7.57734303,12.078599 7.41350343,11.8884642 7.26249377,11.6883181 L8.87500623,10.4716819 C8.97337748,10.6020618 9.08010647,10.7259201 9.19452033,10.8424761 Z"/>
  </g>
</svg>
