<svg xmlns="http://www.w3.org/2000/svg" width="24" height="24" viewBox="0 0 24 24">
  <path d="M8,4 L8,2 L20,2 L20,4 L8,4 Z M8,11 L8,9 L20,9 L20,11 L8,11 Z M8,18 L8,16 L20,16 L20,18 L8,18 Z M2.89473684,5.53947368 C1.43408902,5.53947368 0.25,4.35538467 0.25,2.89473684 C0.25,1.43408902 1.43408902,0.25 2.89473684,0.25 C4.35538467,0.25 5.53947368,1.43408902 5.53947368,2.89473684 C5.53947368,4.35538467 4.35538467,5.53947368 2.89473684,5.53947368 Z M2.89473684,4.03947368 C3.52695754,4.03947368 4.03947368,3.52695754 4.03947368,2.89473684 C4.03947368,2.26251614 3.52695754,1.75 2.89473684,1.75 C2.26251614,1.75 1.75,2.26251614 1.75,2.89473684 C1.75,3.52695754 2.26251614,4.03947368 2.89473684,4.03947368 Z M2.89473684,12.6447368 C1.43408902,12.6447368 0.25,11.4606478 0.25,10 C0.25,8.53935217 1.43408902,7.35526316 2.89473684,7.35526316 C4.35538467,7.35526316 5.53947368,8.53935217 5.53947368,10 C5.53947368,11.4606478 4.35538467,12.6447368 2.89473684,12.6447368 Z M2.89473684,11.1447368 C3.52695754,11.1447368 4.03947368,10.6322207 4.03947368,10 C4.03947368,9.3677793 3.52695754,8.85526316 2.89473684,8.85526316 C2.26251614,8.85526316 1.75,9.3677793 1.75,10 C1.75,10.6322207 2.26251614,11.1447368 2.89473684,11.1447368 Z M2.89473684,19.75 C1.43408902,19.75 0.25,18.565911 0.25,17.1052632 C0.25,15.6446153 1.43408902,14.4605263 2.89473684,14.4605263 C4.35538467,14.4605263 5.53947368,15.6446153 5.53947368,17.1052632 C5.53947368,18.565911 4.35538467,19.75 2.89473684,19.75 Z M2.89473684,18.25 C3.52695754,18.25 4.03947368,17.7374839 4.03947368,17.1052632 C4.03947368,16.4730425 3.52695754,15.9605263 2.89473684,15.9605263 C2.26251614,15.9605263 1.75,16.4730425 1.75,17.1052632 C1.75,17.7374839 2.26251614,18.25 2.89473684,18.25 Z" transform="translate(2 2)"/>
</svg>
