<?xml version="1.0" encoding="UTF-8"?>
<svg width="24px" height="24px" viewBox="0 0 24 24" version="1.1" xmlns="http://www.w3.org/2000/svg" xmlns:xlink="http://www.w3.org/1999/xlink">
    <!-- Generator: Sketch 51.1 (57501) - http://www.bohemiancoding.com/sketch -->
    <title>media</title>
    <desc>Created with Sketch.</desc>
    <defs></defs>
    <g id="media" stroke="none" stroke-width="1" fill="none" fill-rule="evenodd">
        <g fill="#000000" id="icon/media">
            <g>
                <g id="image" stroke-width="1" fill-rule="evenodd" transform="translate(1.000000, 3.000000)">
                    <path d="M18.3917636,15.9021739 L20.25,15.9021739 L20.25,1.75 L1.75,1.75 L1.75,15.9021739 L3.604615,15.9021739 L9.17519806,5.9884244 L12.5200728,11.9646006 L14.5568634,9.19109854 L18.3917636,15.9021739 Z M16.664137,15.9021739 L14.3996583,11.9393362 L12.3494924,14.7310515 L9.17262803,9.05505386 L5.32519867,15.9021739 L16.664137,15.9021739 Z M21.75,0.25 L21.75,17.4021739 L0.25,17.4021739 L0.25,0.25 L21.75,0.25 Z M16.8695652,8.27173913 C15.6149183,8.27173913 14.5978261,7.25464688 14.5978261,6 C14.5978261,4.74535312 15.6149183,3.72826087 16.8695652,3.72826087 C18.1242121,3.72826087 19.1413043,4.74535312 19.1413043,6 C19.1413043,7.25464688 18.1242121,8.27173913 16.8695652,8.27173913 Z M16.8695652,6.77173913 C17.295785,6.77173913 17.6413043,6.42621975 17.6413043,6 C17.6413043,5.57378025 17.295785,5.22826087 16.8695652,5.22826087 C16.4433455,5.22826087 16.0978261,5.57378025 16.0978261,6 C16.0978261,6.42621975 16.4433455,6.77173913 16.8695652,6.77173913 Z" id="Combined-Shape" fill-rule="nonzero"></path>
                </g>
                <path d="M3,5 L3,19 L21,19 L21,5 L3,5 Z M1,3 L23,3 L23,21 L1,21 L1,3 Z" id="Rectangle" fill-rule="nonzero"></path>
            </g>
        </g>
    </g>
</svg>