
<svg width="17px" height="18px" viewBox="0 0 17 18" version="1.1" xmlns="http://www.w3.org/2000/svg">
    <defs>
        <linearGradient x1="20.7595802%" y1="21.3909582%" x2="106.147124%" y2="112.488626%" id="linearGradient-1">
            <stop stop-color="#714BFE" offset="0%"></stop>
            <stop stop-color="#6047FA" offset="51.0853452%"></stop>
            <stop stop-color="#5727E1" offset="100%"></stop>
        </linearGradient>
    </defs>
    <g id="Profile" stroke="none" stroke-width="1" fill="none" fill-rule="evenodd">
        <g id="Profile---Slide-Out" transform="translate(-158.000000, -203.000000)" fill="url(#linearGradient-1)" fill-rule="nonzero">
            <g id="Group-6" transform="translate(18.000000, 0.000000)">
                <g id="Group-Copy-2" transform="translate(36.000000, 187.000000)">
                    <g id="Group-7" transform="translate(7.000000, 0.000000)">
                        <g id="bell" transform="translate(97.000000, 16.000000)">
                            <path d="M16.5000183,13.1775 C16.5032877,12.0827679 16.0684853,11.0322204 15.2925183,10.26 L13.7400183,8.7075 C13.1047939,8.07658474 12.748317,7.21779948 12.7500183,6.3225 L12.7500183,4.5 C12.7500183,2.01471863 10.7352997,1.52179594e-16 8.25001831,0 C5.76473693,-1.52179594e-16 3.75001831,2.01471863 3.75001831,4.5 L3.75001831,6.3225 C3.75171956,7.21779948 3.39524266,8.07658474 2.76001831,8.7075 L1.20751831,10.26 C0.431551316,11.0322204 -0.00325111047,12.0827679 1.83052547e-05,13.1775 L1.83052547e-05,15 L5.62501831,15 L5.62501831,15.375 C5.62501834,16.8247474 6.80027086,17.9999999 8.25001831,17.9999999 C9.69976575,17.9999999 10.8750183,16.8247474 10.8750183,15.375 L10.8750183,15 L16.5000183,15 L16.5000183,13.1775 Z M10.1250183,15.375 C10.1250183,16.4105339 9.28555221,17.25 8.25001831,17.25 C7.2144844,17.25 6.37501831,16.4105339 6.37501831,15.375 L6.37501831,15 L10.1250183,15 L10.1250183,15.375 Z M15.7500244,14.25 L0.750012244,14.25 L0.750018305,13.1775 C0.74831705,12.2822005 1.10479395,11.4234153 1.74001831,10.7925 L3.29251831,9.24 C4.06848529,8.4677796 4.50328772,7.41723212 4.50001831,6.3225 L4.50001831,4.5 C4.50001831,2.42893219 6.17895049,0.75 8.25001831,0.75 C10.3210861,0.75 12.0000183,2.42893219 12.0000183,4.5 L12.0000183,6.3225 C11.9967489,7.41723212 12.4315513,8.4677796 13.2075183,9.24 L14.7600183,10.7925 C15.3952427,11.4234153 15.7517196,12.2822005 15.7500183,13.1775 L15.7500244,14.25 Z" id="Shape"></path>
                        </g>
                    </g>
                </g>
            </g>
        </g>
    </g>
</svg>