<?xml version="1.0" encoding="UTF-8"?>
<svg width="24px" height="24px" viewBox="0 0 24 24" version="1.1" xmlns="http://www.w3.org/2000/svg" xmlns:xlink="http://www.w3.org/1999/xlink">
    <!-- Generator: Sketch 51.1 (57501) - http://www.bohemiancoding.com/sketch -->
    <title>dot menu</title>
    <desc>Created with Sketch.</desc>
    <defs></defs>
    <g id="dot-menu" stroke="none" stroke-width="1" fill="none" fill-rule="evenodd">
        <g id="icon/dot-menu" transform="translate(7.000000, 11.000000)" fill="#000000">
            <g id="menu">
                <path d="M1,2 C0.44771525,2 0,1.55228475 0,1 C0,0.44771525 0.44771525,0 1,0 C1.55228475,0 2,0.44771525 2,1 C2,1.55228475 1.55228475,2 1,2 Z M5,2 C4.44771525,2 4,1.55228475 4,1 C4,0.44771525 4.44771525,0 5,0 C5.55228475,0 6,0.44771525 6,1 C6,1.55228475 5.55228475,2 5,2 Z M9,2 C8.44771525,2 8,1.55228475 8,1 C8,0.44771525 8.44771525,0 9,0 C9.55228475,0 10,0.44771525 10,1 C10,1.55228475 9.55228475,2 9,2 Z"></path>
            </g>
        </g>
    </g>
</svg>