
<svg width="6px" height="21px" viewBox="0 0 6 21" version="1.1" xmlns="http://www.w3.org/2000/svg">
    <g stroke="none" stroke-width="1" fill="none" fill-rule="evenodd" fill-opacity="0.727270154">
        <g transform="translate(-420.000000, -331.000000)" fill="#D0D7DD" id="File">
            <g transform="translate(182.000000, 315.000000)">
                <g>
                    <path d="M248.807784,28.5443965 C247.596583,28.5443965 246.613672,27.5273606 246.613672,26.2721982 C246.613672,25.0170359 247.596583,24 248.807784,24 C250.01989,24 251.001896,25.0170359 251.001896,26.2721982 C251.001896,27.5273606 250.01989,28.5443965 248.807784,28.5443965 L248.807784,28.5443965 Z M241.036896,28.5443965 C239.832942,28.5443965 238.857278,27.5273606 238.857278,26.2721982 C238.857278,25.0170359 239.832942,24 241.036896,24 C242.240849,24 243.216513,25.0170359 243.216513,26.2721982 C243.216513,27.5273606 242.240849,28.5443965 241.036896,28.5443965 L241.036896,28.5443965 Z M233.266007,28.5443965 C232.053901,28.5443965 231.071895,27.5273606 231.071895,26.2721982 C231.071895,25.0170359 232.053901,24 233.266007,24 C234.477208,24 235.460119,25.0170359 235.460119,26.2721982 C235.460119,27.5273606 234.477208,28.5443965 233.266007,28.5443965 L233.266007,28.5443965 Z" id="options" transform="translate(241.036896, 26.272198) rotate(-90.000000) translate(-241.036896, -26.272198) "></path>
                </g>
            </g>
        </g>
    </g>
</svg>