<?xml version="1.0" encoding="UTF-8"?>
<svg width="21px" height="5px" viewBox="0 0 21 5" version="1.1" xmlns="http://www.w3.org/2000/svg" xmlns:xlink="http://www.w3.org/1999/xlink">
    <!-- Generator: Sketch 48.2 (47327) - http://www.bohemiancoding.com/sketch -->
    <title>options</title>
    <desc>Created with Sketch.</desc>
    <defs></defs>
    <g id="Page-1" stroke="none" stroke-width="1" fill="none" fill-rule="evenodd">
        <g id="options" transform="translate(10.000000, 2.500000) rotate(90.000000) translate(-10.000000, -2.500000) translate(7.000000, -8.000000)" fill="#D0D7DD" fill-rule="nonzero">
            <path d="M10.8077848,12.5443968 C9.59658375,12.5443968 8.61367275,11.5273609 8.61367275,10.2721984 C8.61367275,9.01703615 9.59658375,8.00000025 10.8077848,8.00000025 C12.0198908,8.00000025 13.0018968,9.01703615 13.0018968,10.2721984 C13.0018968,11.5273609 12.0198908,12.5443968 10.8077848,12.5443968 Z M3.03689675,12.5443968 C1.83294275,12.5443968 0.85727875,11.5273609 0.85727875,10.2721984 C0.85727875,9.01703615 1.83294275,8.00000025 3.03689675,8.00000025 C4.24084975,8.00000025 5.21651375,9.01703615 5.21651375,10.2721984 C5.21651375,11.5273609 4.24084975,12.5443968 3.03689675,12.5443968 Z M-4.73399225,12.5443968 C-5.94609825,12.5443968 -6.92810425,11.5273609 -6.92810425,10.2721984 C-6.92810425,9.01703615 -5.94609825,8.00000025 -4.73399225,8.00000025 C-3.52279125,8.00000025 -2.53988025,9.01703615 -2.53988025,10.2721984 C-2.53988025,11.5273609 -3.52279125,12.5443968 -4.73399225,12.5443968 Z" transform="translate(3.036896, 10.272199) rotate(-90.000000) translate(-3.036896, -10.272199) "></path>
        </g>
    </g>
</svg>