<svg xmlns="http://www.w3.org/2000/svg" width="18" height="20" viewBox="0 0 18 20">
  <path d="M13.5783656,13.1870612 C16.1865325,10.5788943 16.1756821,6.35808136 13.5392351,3.72163443 C10.9114751,1.09387444 6.72989365,1.10467956 4.11293878,3.72163443 L4.07380835,3.76076487 C1.47104939,6.36352382 1.47104939,10.5843023 4.07380835,13.1870612 L8.82608696,17.9393398 L13.5783656,13.1870612 Z M14.6390257,14.2477214 L8.82608696,20.0606602 L3.01314817,14.2477214 C-0.175397218,11.059176 -0.175397218,5.88865009 3.01314817,2.7001047 L3.05227861,2.66097426 C6.25379637,-0.540543497 11.3851183,-0.553802727 14.5998953,2.66097426 C17.8209114,5.88199035 17.8342033,11.0525438 14.6390257,14.2477214 Z M13.5392351,3.72163443 L14.5998953,2.66097426 L13.5392351,3.72163443 Z M8.82608696,11.1413043 C7.33131627,11.1413043 6.11956522,9.92955329 6.11956522,8.43478261 C6.11956522,6.94001193 7.33131627,5.72826087 8.82608696,5.72826087 C10.3208576,5.72826087 11.5326087,6.94001193 11.5326087,8.43478261 C11.5326087,9.92955329 10.3208576,11.1413043 8.82608696,11.1413043 Z M8.82608696,9.64130435 C9.49243051,9.64130435 10.0326087,9.10112617 10.0326087,8.43478261 C10.0326087,7.76843905 9.49243051,7.22826087 8.82608696,7.22826087 C8.1597434,7.22826087 7.61956522,7.76843905 7.61956522,8.43478261 C7.61956522,9.10112617 8.1597434,9.64130435 8.82608696,9.64130435 Z"/>
</svg>
