
<svg width="16px" height="28px" viewBox="0 0 16 28" version="1.1" xmlns="http://www.w3.org/2000/svg">
    <g id="Content" stroke="none" stroke-width="1" fill="none" fill-rule="evenodd">
        <g transform="translate(-1240.000000, -139.000000)" fill="#5E3FF4" id="side-app---ooto-space" stroke="#FFFFFF" stroke-width="0.3">
            <g transform="translate(1188.000000, 81.000000)">
                <g id="main" transform="translate(32.000000, 42.000000)">
                    <g id="icon" transform="translate(0.000000, 2.000000)">
                        <path d="M37.7050822,23.9750031 C37.6442245,24.2132177 37.572934,24.4479546 37.4946884,24.679214 C37.4842556,24.7157287 37.4720841,24.7513739 37.4581737,24.7852804 C37.0365166,25.9789613 36.3696897,27.0909191 35.5194202,28.021173 L35.5194202,28.1055044 L35.2168703,28.3324169 L35.2168703,28.3324169 L34.0101484,29.3852557 C33.9379885,31.4848475 33.0738087,33.5131488 31.6071373,35.0006857 C31.1002793,35.5144989 30.5316942,35.9596297 29.9170311,36.3212985 C29.7309803,36.4299731 29.5249334,36.4856144 29.3171477,36.4856144 C29.1580482,36.4856144 29.0032957,36.4534468 28.8554983,36.3908502 C28.5077398,36.2413141 28.2477904,35.9344172 28.1582426,35.5684014 L27.7878798,34.0904279 L27.3783942,34.2425722 C26.500304,34.5694652 25.4683307,34.3355976 24.8136754,33.6705095 L22.5567228,31.3805199 C21.8864184,30.6997827 21.6655917,29.6782422 21.9933541,28.7766783 L22.1437596,28.3637151 L20.6840434,27.9863972 C20.3215052,27.8907636 20.0206941,27.6273365 19.8772437,27.2813169 C19.732924,26.9309502 19.7590059,26.5284197 19.9450567,26.2023962 C20.3015091,25.5781697 20.7388154,25.0008906 21.2465428,24.4862081 C22.7097366,23.00041 24.7128254,22.1214504 26.7793802,22.0475517 L27.8878603,20.7451962 C28.8572371,19.7653867 30.0491793,19.0029262 31.3358857,18.5395381 C31.3393633,18.5369299 31.3732697,18.5238889 31.4150007,18.5117174 C31.6436519,18.4308635 31.8757807,18.359573 32.1113871,18.2978459 C33.6502184,17.8944461 35.3003323,17.9005318 36.8391636,18.317842 C37.2512574,18.4299941 37.5746728,18.7586259 37.6850861,19.1759361 C38.0980493,20.7434574 38.1050045,22.4031348 37.7050822,23.9750031 L37.7050822,23.9750031 Z M29.3101925,34.5146932 C29.649257,34.2790869 30.2074094,34.1773675 30.5021347,33.8791646 C31.3263223,33.0428055 31.9096872,31.9943137 32.212237,30.8640986 L29.2988904,33.3757842 C29.2788943,33.3940415 29.2528124,33.4009967 29.2310775,33.4157764 L29.3101925,34.5146932 L29.3101925,34.5146932 Z M22.3515453,25.6077292 C22.0576894,25.9059321 21.7925236,26.2302168 21.5595254,26.5753671 L23.2244191,26.6901274 L24.9632115,24.0819388 C23.8547314,24.3905745 23.1705166,24.7765864 22.3515453,25.6077292 L22.3515453,25.6077292 Z M36.2279781,19.7975544 C35.0082152,19.502829 33.7136843,19.51587 32.501746,19.834069 C32.3000461,19.8862328 32.1026931,19.9479599 31.9079484,20.0166422 L31.8557846,20.0331607 C30.8038152,20.4139563 29.8257445,21.0364439 29.0250306,21.8345497 L28.979822,21.8832358 L27.7409324,23.347299 L23.8651641,28.2080932 L23.4600255,29.3261367 C23.342657,29.6486827 23.4217721,30.0146985 23.6617254,30.2589988 L25.9195473,32.5489884 C26.1534149,32.787203 26.5263859,32.870665 26.8393685,32.7541659 L28.2199697,32.2377446 C28.2417046,32.2134015 28.2625701,32.1890584 28.2869132,32.1673235 L32.3000461,28.7062572 C32.3774223,28.6401831 32.4643619,28.5923663 32.5547791,28.5619375 L34.2205423,27.1048294 C35.005607,26.2954216 35.6185314,25.3025711 35.9932411,24.2306056 L36.010629,24.1819194 C36.0784419,23.9836971 36.1392997,23.7819971 36.1914635,23.5785584 C36.5061849,22.3405382 36.5183564,21.0381827 36.2279781,19.7975544 L36.2279781,19.7975544 Z M31.8896911,26.7414218 C30.4525791,26.7414218 29.2832412,25.554696 29.2832412,24.0958492 C29.2832412,22.6370023 30.4525791,21.4502765 31.8896911,21.4502765 C33.3276724,21.4502765 34.4970103,22.6370023 34.4970103,24.0958492 C34.4970103,25.554696 33.3276724,26.7414218 31.8896911,26.7414218 L31.8896911,26.7414218 Z M31.8896911,23.0369246 C31.3150202,23.0369246 30.8464156,23.5116149 30.8464156,24.0958492 C30.8464156,24.6800834 31.3150202,25.1547737 31.8896911,25.1547737 C32.4652313,25.1547737 32.9338359,24.6800834 32.9338359,24.0958492 C32.9338359,23.5116149 32.4652313,23.0369246 31.8896911,23.0369246 L31.8896911,23.0369246 Z M20.8622696,31.7161069 C21.1674277,32.0256119 21.1674277,32.5281229 20.8622696,32.837628 L19.3338711,34.3877614 C19.1817268,34.5433833 18.9817657,34.6207596 18.7818045,34.6207596 C18.5818434,34.6207596 18.3818823,34.5433833 18.2288685,34.3877614 C17.9237105,34.0782563 17.9237105,33.5766147 18.2288685,33.2662403 L19.7572671,31.7161069 C20.0624251,31.4057324 20.5571116,31.4057324 20.8622696,31.7161069 L20.8622696,31.7161069 Z M21.6221219,33.2662403 C21.92728,32.9567352 22.4219664,32.9567352 22.7271245,33.2662403 C23.0322826,33.5766147 23.0322826,34.0782563 22.7271245,34.3877614 L19.4034228,37.7601493 C19.2512785,37.9149018 19.0513174,37.992278 18.8513562,37.992278 C18.6505257,37.992278 18.4505646,37.9149018 18.2984202,37.7601493 C17.9932622,37.4497748 17.9932622,36.9481332 18.2984202,36.6386282 L21.6221219,33.2662403 L21.6221219,33.2662403 Z M23.4069923,35.1789119 C23.7121504,34.8685375 24.2077062,34.8694069 24.5119949,35.1789119 C24.817153,35.488417 24.817153,35.990928 24.5119949,36.300433 L23.2618032,37.5680127 C23.1096588,37.7227652 22.9096977,37.8001415 22.7097366,37.8001415 C22.5097754,37.8001415 22.3098143,37.7227652 22.1568006,37.5680127 C21.8516425,37.2585077 21.8516425,36.7559966 22.1568006,36.4464916 L23.4069923,35.1789119 L23.4069923,35.1789119 Z" id="rocket-icon" transform="translate(28.000000, 27.996139) rotate(-46.000000) translate(-28.000000, -27.996139) "></path>
                    </g>
                </g>
            </g>
        </g>
    </g>
</svg>