<svg xmlns="http://www.w3.org/2000/svg" width="18" height="17" viewBox="0 0 18 17">
  <path d="M16.0081837,14.5939701 L20.2071068,18.7928932 L18.7928932,20.2071068 L14.7383328,16.1525464 C13.4916645,17.299589 11.8276271,18 10,18 C6.13400675,18 3,14.8659932 3,11 C3,7.13400675 6.13400675,4 10,4 C13.8659932,4 17,7.13400675 17,11 C17,12.313987 16.6379573,13.5434143 16.0081837,14.5939701 Z M10,16 C12.7614237,16 15,13.7614237 15,11 C15,8.23857625 12.7614237,6 10,6 C7.23857625,6 5,8.23857625 5,11 C5,13.7614237 7.23857625,16 10,16 Z" transform="translate(-3 -4)"/>
</svg>
