<?xml version="1.0" encoding="UTF-8"?>
<svg width="42px" height="42px" viewBox="0 0 42 42" version="1.1" xmlns="http://www.w3.org/2000/svg" xmlns:xlink="http://www.w3.org/1999/xlink">
    <!-- Generator: Sketch 50.2 (55047) - http://www.bohemiancoding.com/sketch -->
    <title>icon/settings-circle</title>
    <desc>Created with Sketch.</desc>
    <defs></defs>
    <g id="New-UI-Kit" stroke="none" stroke-width="1" fill="none" fill-rule="evenodd">
        <g id="Icons" transform="translate(-305.000000, -758.000000)">
            <g id="circle-settings" transform="translate(305.000000, 758.000000)">
                <g id="icon/settings-circle">
                    <g id="Group-3">
                        <circle id="Oval-2" fill="#6047FA" cx="21" cy="21" r="21"></circle>
                        <g id="purple" transform="translate(13.125000, 13.125000)" stroke="#FFFFFF" stroke-width="1.5">
                            <circle id="Oval" cx="7.875" cy="7.875" r="2.39673913"></circle>
                            <path d="M15.75,9.0048913 L15.75,6.65951087 L14.3804348,6.56021739 C13.8307346,6.52005765 13.3509013,6.172775 13.1409783,5.66315217 L13.1409783,5.64603261 C12.9290623,5.13622303 13.0231561,4.55045599 13.3840761,4.13266304 L14.2811413,3.10548913 L12.6136957,1.43461957 L11.5865217,2.33168478 C11.1687288,2.69260476 10.5829617,2.78669856 10.0731522,2.57478261 L10.0560326,2.57478261 C9.54855342,2.3734136 9.20034163,1.90027087 9.15896739,1.35586957 L9.04597826,0 L6.70059783,0 L6.60130435,1.34902174 C6.56052915,1.89606434 6.21278889,2.37254814 5.70423913,2.57820652 C5.19442956,2.79012247 4.60866251,2.69602867 4.19086957,2.3351087 L3.16369565,1.43804348 L1.47570652,3.08152174 L2.37277174,4.10869565 C2.73369171,4.5264886 2.82778552,5.11225564 2.61586957,5.62206522 C2.4173024,6.14984991 1.93168339,6.51539828 1.36956522,6.56021739 L0,6.65951087 L0,9.0048913 L1.36956522,9.1076087 C1.91926541,9.14776843 2.3990987,9.49505109 2.60902174,10.0046739 L2.60902174,10.0217935 C2.82093769,10.5316031 2.72684389,11.1173701 2.36592391,11.535163 L1.4688587,12.562337 L3.12603261,14.2195109 L4.15320652,13.3224457 C4.57099947,12.9615257 5.15676651,12.8674319 5.66657609,13.0793478 L5.68369565,13.0793478 C6.19600251,13.2989192 6.54235349,13.7867189 6.58076087,14.3427717 L6.70059783,15.75 L9.04597826,15.75 L9.14527174,14.3633152 C9.18557312,13.8112216 9.53215099,13.3283936 10.042337,13.113587 L10.0594565,13.113587 C10.5686329,12.9007454 11.1543328,12.9935033 11.5728261,13.3532609 L12.6,14.2469022 L14.2571739,12.5863043 L13.3601087,11.5591304 C12.9991887,11.1413375 12.9050949,10.5555704 13.1170109,10.0457609 L13.1170109,10.0286413 C13.3234431,9.5022415 13.8161187,9.14308228 14.3804348,9.1076087 L15.75,9.0048913 Z" id="Shape"></path>
                        </g>
                    </g>
                </g>
            </g>
        </g>
    </g>
</svg>