<svg xmlns="http://www.w3.org/2000/svg" width="26" height="26" viewBox="0 0 26 26">
    <g fill="none" fill-rule="evenodd" stroke="#1F346C" stroke-width="2" transform="translate(1 1)">
        <circle cx="11.5" cy="11.5" r="3.5"/>
        <path d="M24 13.722v-3.574l-2.087-.151a2.217 2.217 0 0 1-1.889-1.367v-.027a2.223 2.223 0 0 1 .37-2.306l1.368-1.565-2.541-2.546-1.565 1.367c-.637.55-1.53.693-2.306.37h-.027a2.176 2.176 0 0 1-1.366-1.857L13.784 0H10.21l-.15 2.056a2.197 2.197 0 0 1-1.368 1.873c-.777.323-1.67.18-2.306-.37L4.821 2.19 2.249 4.696 3.616 6.26c.55.637.693 1.53.37 2.306a2.217 2.217 0 0 1-1.899 1.43L0 10.147v3.575l2.087.156c.838.061 1.569.59 1.889 1.367v.026c.323.777.18 1.67-.37 2.306l-1.368 1.566 2.525 2.525L6.33 20.3a2.223 2.223 0 0 1 2.306-.37h.026a2.264 2.264 0 0 1 1.367 1.925L10.21 24h3.574l.152-2.113a2.243 2.243 0 0 1 1.367-1.904h.026a2.223 2.223 0 0 1 2.306.365L19.2 21.71l2.525-2.53-1.367-1.566a2.223 2.223 0 0 1-.37-2.306v-.026a2.217 2.217 0 0 1 1.925-1.404L24 13.722z"/>
    </g>
</svg>
