<svg xmlns="http://www.w3.org/2000/svg" width="24" height="24" viewBox="0 0 24 24">
  <path d="M6.90217391,3.81066017 L5.05206922,5.66076487 L3.99140904,4.6001047 L7.65217391,0.939339828 L11.3129388,4.6001047 L10.2522786,5.66076487 L8.40217391,3.81066017 L8.40217391,12.173913 L6.90217391,12.173913 L6.90217391,3.81066017 Z M13.2057971,9 L10.3217391,9 L10.3217391,7 L15.2057971,7 L15.2057971,16.5449275 C15.2057971,18.8061978 13.359821,20.6521739 11.0985507,20.6521739 L4.10724638,20.6521739 C1.84597612,20.6521739 0,18.8061978 0,16.5449275 L0,7 L4.88405797,7 L4.88405797,9 L2,9 L2,16.5449275 C2,17.7016283 2.95054562,18.6521739 4.10724638,18.6521739 L11.0985507,18.6521739 C12.2552515,18.6521739 13.2057971,17.7016283 13.2057971,16.5449275 L13.2057971,9 Z" transform="translate(4 1)"/>
</svg>
