<svg xmlns="http://www.w3.org/2000/svg" width="20" height="20" viewBox="0 0 20 20">
  <path d="M18.6241224,11.25 L16.5783656,9.20424313 L17.6390257,8.14358296 L21.4954428,12 L17.6390257,15.856417 L16.5783656,14.7957569 L18.6241224,12.75 L10.2608696,12.75 L10.2608696,11.25 L18.6241224,11.25 Z M4,20 L11.6086957,20 C12.3477153,20 12.9565217,19.3911935 12.9565217,18.6521739 L12.9565217,14.7391304 L14.9565217,14.7391304 L14.9565217,18.6521739 C14.9565217,20.495763 13.4522847,22 11.6086957,22 L2,22 L2,2 L11.6086957,2 C13.4522847,2 14.9565217,3.50423699 14.9565217,5.34782609 L14.9565217,9.26086957 L12.9565217,9.26086957 L12.9565217,5.34782609 C12.9565217,4.60880649 12.3477153,4 11.6086957,4 L4,4 L4,20 Z" transform="translate(-2 -2)"/>
</svg>
