<svg xmlns="http://www.w3.org/2000/svg" width="24" height="24" viewBox="0 0 24 24">
  <path d="M8.14715719,1.61538462 C4.53218376,1.61538462 1.61538462,4.53218376 1.61538462,8.14715719 C1.61538462,11.7621306 4.53218376,14.6789298 8.14715719,14.6789298 L15.8528428,14.6789298 C19.4678162,14.6789298 22.3846154,11.7621306 22.3846154,8.14715719 C22.3846154,4.53218376 19.4678162,1.61538462 15.8528428,1.61538462 L8.14715719,1.61538462 Z M8.14715719,0.230769231 L15.8528428,0.230769231 C20.2325182,0.230769231 23.7692308,3.7674818 23.7692308,8.14715719 C23.7692308,12.5268326 20.2325182,16.0635452 15.8528428,16.0635452 L8.14715719,16.0635452 C3.7674818,16.0635452 0.230769231,12.5268326 0.230769231,8.14715719 C0.230769231,3.7674818 3.7674818,0.230769231 8.14715719,0.230769231 Z M15.8528428,13.173913 C18.6290434,13.173913 20.8795987,10.9233578 20.8795987,8.14715719 C20.8795987,5.37095659 18.6290434,3.12040134 15.8528428,3.12040134 C13.0766422,3.12040134 10.826087,5.37095659 10.826087,8.14715719 C10.826087,10.9233578 13.0766422,13.173913 15.8528428,13.173913 Z M15.8528428,11.7892977 C13.8413442,11.7892977 12.2107023,10.1586558 12.2107023,8.14715719 C12.2107023,6.13565855 13.8413442,4.50501672 15.8528428,4.50501672 C17.8643414,4.50501672 19.4949833,6.13565855 19.4949833,8.14715719 C19.4949833,10.1586558 17.8643414,11.7892977 15.8528428,11.7892977 Z" transform="translate(0 4)"/>
</svg>
