<svg xmlns="http://www.w3.org/2000/svg" width="24" height="24" viewBox="0 0 24 24">
  <g fill="none" fill-rule="evenodd">
    <rect width="24" height="24" fill="#D8D8D8" opacity="0"/>
    <path fill="#6047FA" d="M8,9 L20,9 L20,22 C20,23.1045695 19.1045695,24 18,24 L8,24 L8,9 Z M0,9 L6,9 L6,24 L2,24 C0.8954305,24 1.3527075e-16,23.1045695 0,22 L0,9 Z M2,0 L18,0 C19.1045695,-2.02906125e-16 20,0.8954305 20,2 L20,7 L0,7 L0,2 C-1.3527075e-16,0.8954305 0.8954305,2.02906125e-16 2,0 Z" transform="translate(2)"/>
  </g>
</svg>
