<?xml version="1.0" encoding="UTF-8"?>
<svg width="24px" height="24px" viewBox="0 0 24 24" version="1.1" xmlns="http://www.w3.org/2000/svg" xmlns:xlink="http://www.w3.org/1999/xlink">
    <!-- Generator: Sketch 50.2 (55047) - http://www.bohemiancoding.com/sketch -->
    <title>template filled</title>
    <desc>Created with Sketch.</desc>
    <defs></defs>
    <g id="New-UI-Kit" stroke="none" stroke-width="1" fill="none" fill-rule="evenodd">
        <g id="Icons" transform="translate(-268.000000, -373.000000)">
            <g id="template-filled" transform="translate(268.000000, 373.000000)">
                <g id="icon/template">
                    <rect id="Rectangle-18" fill="#FFFFFF" opacity="0" x="0" y="0" width="24" height="24"></rect>
                    <g stroke-width="1" transform="translate(2.000000, 0.000000)" fill="#6047FA">
                        <path d="M8,9 L20,9 L20,22 C20,23.1045695 19.1045695,24 18,24 L8,24 L8,9 Z" id="Rectangle-6"></path>
                        <path d="M0,9 L6,9 L6,24 L2,24 C0.8954305,24 1.3527075e-16,23.1045695 0,22 L0,9 Z" id="Rectangle-6-Copy-2"></path>
                        <path d="M2,0 L18,0 C19.1045695,-2.02906125e-16 20,0.8954305 20,2 L20,7 L0,7 L0,2 C-1.3527075e-16,0.8954305 0.8954305,2.02906125e-16 2,0 Z" id="Rectangle-6-Copy"></path>
                    </g>
                </g>
                <rect id="Rectangle-2-Copy" fill="#D8D8D8" opacity="0" x="0" y="0" width="24" height="24"></rect>
            </g>
        </g>
    </g>
</svg>