<svg width="24" height="24" viewBox="0 0 24 24">
  <path fill-rule="evenodd" d="M18.9142707,14.864706 C18.8173696,15.0978225 18.8603951,15.3656715 19.0218942,15.5526415 L20.661294,17.4298169 L17.448179,20.6495707 L16.7436345,20.036617 L15.5742006,19.0191862 C15.3828394,18.8546827 15.1150211,18.812268 14.8821938,18.9095924 L14.7759928,18.9539856 C14.5887523,19.0674394 14.4653332,19.2654395 14.4491853,19.4866394 L14.2692164,22 L9.73936483,22 L9.66143244,21.084851 L9.5232465,19.4606464 C9.50741609,19.2314574 9.3802534,19.0269444 9.18678543,18.9105232 L9.09225058,18.8712272 C8.85913403,18.7743261 8.59128501,18.8173516 8.40431507,18.9788507 L6.52641176,20.6188862 L3.31067902,17.4031534 L3.92549719,16.6991632 L4.94717853,15.5293212 C5.11221359,15.3382802 5.15523912,15.0704312 5.05833799,14.8373146 L5.01110312,14.723681 C4.90092022,14.5418418 4.70824605,14.4218099 4.49042738,14.405895 L2,14.2191128 L2,9.68074489 L2.92768979,9.61348738 L4.48573709,9.50055486 C4.74186563,9.48013308 4.96313741,9.31357136 5.06616408,9.04138106 C5.1630652,8.80826448 5.12003967,8.54041541 4.95854066,8.3534455 L3.31022057,6.46605609 L6.57882363,3.28364336 L7.2734455,3.89027979 L8.44328758,4.91196117 C8.63432846,5.07699619 8.90217752,5.12002172 9.14422463,5.01945883 C9.37262431,4.92709361 9.52880129,4.71309539 9.54704565,4.46833364 L9.72872503,2 L14.2583938,2 L14.3348067,2.91695454 L14.4645158,4.47378431 C14.4800309,4.6779313 14.5930623,4.85943161 14.7638624,4.96427678 L14.8960102,5.01920755 C15.1291268,5.11610868 15.3969759,5.07308315 15.5839458,4.91158412 L17.4625732,3.27091627 L20.6886892,6.50365682 L20.0745028,7.20692372 L19.0528215,8.37676587 C18.8877864,8.56780675 18.8447609,8.83565577 18.941662,9.06877232 L18.9889102,9.18243803 C19.0990561,9.36425604 19.291427,9.48425297 19.5070928,9.50000911 L22,9.68074489 L22,14.2191128 L21.07479,14.2885036 L19.4975199,14.4067258 C19.2793311,14.4204414 19.0846466,14.5403543 18.973212,14.7229101 L18.9142707,14.864706 Z M21,13.2913043 L21,10.6108696 L19.4347826,10.4973913 C18.8065538,10.4514945 18.2581729,10.0546 18.0182609,9.47217391 C17.7760712,8.86996918 17.883607,8.20052113 18.296087,7.72304348 L19.3213043,6.54913043 L17.4156522,4.63956522 L16.2417391,5.66478261 C15.7642615,6.07726258 15.0948134,6.18479835 14.5121739,5.9426087 C13.9126325,5.71247269 13.5146761,5.17173813 13.4673913,4.54956522 L13.3382609,3 L10.6578261,3 L10.5443478,4.54173913 C10.4977476,5.16693068 10.1003302,5.71148359 9.51913043,5.94652174 C8.93649092,6.1887114 8.26704287,6.08117562 7.78956522,5.66869565 L6.61565217,4.64347826 L4.68652174,6.52173913 L5.71173913,7.69565217 C6.1242191,8.17312982 6.23175488,8.84257788 5.98956522,9.42521739 C5.76263132,10.0283999 5.20763816,10.4461695 4.56521739,10.4973913 L3,10.6108696 L3,13.2913043 L4.56521739,13.4086957 C5.19344618,13.4545925 5.74182708,13.851487 5.98173913,14.433913 C6.22392879,15.0361178 6.11639302,15.7055658 5.70391304,16.1830435 L4.67869565,17.3569565 L6.5726087,19.2508696 L7.74652174,18.2256522 C8.22399939,17.8131722 8.89344744,17.7056364 9.47608696,17.9478261 C10.0811457,18.1987648 10.4769754,18.7562501 10.5208696,19.3917391 L10.6578261,21 L13.3382609,21 L13.4517391,19.4152174 C13.4977979,18.7842532 13.8938868,18.2324498 14.4769565,17.9869565 C15.0784377,17.7437091 15.7478089,17.8497181 16.226087,18.2608696 L17.4,19.2821739 L19.293913,17.3843478 L18.2686957,16.2104348 C17.8562157,15.7329571 17.7486799,15.0635091 17.9908696,14.4808696 C18.2267921,13.8597046 18.78985,13.4492369 19.4347826,13.4086957 L21,13.2913043 Z M12,15 C10.3431458,15 9,13.6568542 9,12 C9,10.3431458 10.3431458,9 12,9 C13.6568542,9 15,10.3431458 15,12 C15,13.6568542 13.6568542,15 12,15 Z M12,14 C13.1045695,14 14,13.1045695 14,12 C14,10.8954305 13.1045695,10 12,10 C10.8954305,10 10,10.8954305 10,12 C10,13.1045695 10.8954305,14 12,14 Z"/>
</svg>
