
<svg width="15px" height="18px" viewBox="0 0 15 18" version="1.1" xmlns="http://www.w3.org/2000/svg">
    <g id="Settings" stroke="none" stroke-width="1" fill="none" fill-rule="evenodd" opacity="0.5">
        <g id="Settings---Members" transform="translate(-1304.000000, -261.000000)" fill="#000000" fill-rule="nonzero">
            <g id="Group-4" transform="translate(336.000000, 243.000000)">
                <g id="Group-3" transform="translate(921.000000, 18.000000)">
                    <g id="trash" transform="translate(47.000000, 0.000000)">
                        <path d="M15,2.24999966 L10.77,2.24999966 L10.4475,1.28249981 C10.1925834,0.517136835 9.47669868,0.00061251485 8.67,0 L6.33,0 C5.52330132,0.00061251485 4.80741662,0.517136835 4.5525,1.28249981 L4.23,2.24999966 L0,2.24999966 L0,2.99999955 L1.125,2.99999955 L1.7325,14.7937478 C1.82249869,16.5914981 3.30749947,18.0022486 5.1075,17.9999973 L9.89625,17.9999973 C11.6962505,18.0022486 13.1812513,16.5914981 13.27125,14.7937478 L13.875,2.99999955 L15,2.99999955 L15,2.24999966 Z M5.25,1.51875 C5.40475879,1.05508216 5.841219,0.74440736 6.33,0.75 L8.66625,0.75 C9.15640584,0.742764469 9.59482048,1.05375063 9.75,1.51875 L9.97875,2.25 L5.02125,2.25 L5.25,1.51875 Z M12.5025,14.75625 C12.432501,16.1545005 11.2775004,17.251751 9.8775,17.25 L5.10375,17.25 C3.70374958,17.251751 2.54874898,16.1545005 2.47875,14.75625 L1.89375,3 L13.10625,3 L12.5025,14.75625 Z" id="Shape"></path>
                        <rect id="Rectangle-path" transform="translate(5.624954, 9.750502) rotate(-2.600000) translate(-5.624954, -9.750502) " x="5.24995444" y="5.62175177" width="1" height="8.2575"></rect>
                        <rect id="Rectangle-path" transform="translate(9.374536, 9.749734) rotate(-87.400000) translate(-9.374536, -9.749734) " x="5.24578555" y="9.37473419" width="8.2575" height="1"></rect>
                    </g>
                </g>
            </g>
        </g>
    </g>
</svg>