<svg xmlns="http://www.w3.org/2000/svg" width="16" height="20" viewBox="0 0 16 20">
  <path d="M4.02182987,3 L4.41028953,1.83711445 C4.7240293,0.890940389 5.60756973,0.251588867 6.60521739,0.25 L9.04423865,0.250000952 C10.0406911,0.251588867 10.9242316,0.890940389 11.2367898,1.83358073 L11.6300028,3 L16,3 L16,5 L14.7552847,5 L14.2021054,16.0635864 C14.0986287,18.1305653 12.3912365,19.7525879 10.3226087,19.75 L5.32659023,19.7499994 C3.2570244,19.7525879 1.5496322,18.1305653 1.44614164,16.0633095 L0.896390766,5 L-4.11892742e-14,5 L-4.11892742e-14,3 L4.02182987,3 Z M5.60330716,3 L10.0470674,3 L9.81420257,2.30921879 C9.70360998,1.97569447 9.3924864,1.75055781 9.04304348,1.75 L6.60641257,1.74999905 C6.25577447,1.75055781 5.94465089,1.97569447 5.83353404,2.31079401 L5.60330716,3 Z M2.39824154,5 L2.94427933,15.9885875 C3.00775667,17.2565662 4.05514852,18.2515885 5.32565217,18.25 L10.3235468,18.2500006 C11.5931123,18.2515885 12.6405042,17.2565662 12.7039792,15.9886337 L13.2534109,5 L2.39824154,5 Z M4.92517487,6.52174819 L6.42265122,6.43477355 L6.92265122,15.0434692 L5.42517487,15.1304438 L4.92517487,6.52174819 Z M9.33821835,6.43477355 L10.8356947,6.52174819 L10.3356947,15.1304438 L8.83821835,15.0434692 L9.33821835,6.43477355 Z"/>
</svg>
