<svg xmlns="http://www.w3.org/2000/svg" width="20" height="20" viewBox="0 0 20 20">
  <path d="M4.09804944,15.7645068 C5.59608274,17.2980325 7.6868694,18.25 10,18.25 C12.3126195,18.25 14.4029933,17.2984531 15.9009575,15.7655232 C15.8718337,14.9924536 15.321519,14.4102303 14.4396641,14.1414305 L9.99724939,13.3061047 L5.64827808,14.0914254 C4.70151827,14.3357505 4.11116991,14.9784541 4.09804944,15.7645068 Z M2.97341084,14.3253424 C3.4269582,13.5095688 4.26322531,12.9004432 5.32726539,12.6272134 L10.0025813,11.78082 L10.1385968,11.8063955 L14.7937718,12.6859781 C15.7962478,12.9867209 16.5830721,13.559625 17.0202296,14.3356348 C17.7999407,13.0758118 18.25,11.5904644 18.25,10 C18.25,5.44365081 14.5563492,1.75 10,1.75 C5.44365081,1.75 1.75,5.44365081 1.75,10 C1.75,11.5861353 2.19761259,13.0677251 2.97341084,14.3253424 Z M10,19.75 C4.61522369,19.75 0.25,15.3847763 0.25,10 C0.25,4.61522369 4.61522369,0.25 10,0.25 C15.3847763,0.25 19.75,4.61522369 19.75,10 C19.75,15.3847763 15.3847763,19.75 10,19.75 Z M13.3472439,7.11273619 C13.3336419,7.18727304 13.3336419,7.18727304 13.3199562,7.26109398 C13.2602704,7.58190529 13.2007635,7.88191945 13.1653036,8.05280982 C12.8571089,9.85061269 11.6657012,11.1413043 10,11.1413043 C8.34490581,11.1413043 7.14847221,9.83092469 6.83921102,8.07679506 C6.79923653,7.88191945 6.73972959,7.58190529 6.68004377,7.26109398 C6.6663581,7.18727304 6.6663581,7.18727304 6.6527561,7.11273619 C6.56009783,6.60274207 6.51086957,6.27620782 6.51086957,6.08695652 C6.51086957,6.02826087 6.51086957,6.02826087 6.51112913,5.94983521 C6.56122282,4.04627468 8.12115383,2.54812312 10,2.59782609 L10.0586957,2.59782609 C10.0880435,2.59782609 10.0880435,2.59782609 10.1371213,2.59808565 C12.0380812,2.64811091 13.5347391,4.20385081 13.489067,6.09890692 C13.4870702,6.28982868 13.4379808,6.61331727 13.3472439,7.11273619 Z M11.9891304,6.08695652 L11.98939,6.06722651 C12.0174507,5.00092054 11.1771557,4.12597428 10.1173913,4.09782609 L10.0586957,4.09782609 C10.0293478,4.09782609 10.0293478,4.09782609 9.98026999,4.09756653 C8.91396402,4.06950584 8.03901775,4.90980077 8.01086957,5.96956522 L8.01086957,6.08695652 C8.01086957,6.14427488 8.05724186,6.45186529 8.12859555,6.84459833 C8.14159221,6.91581835 8.14159221,6.91581835 8.15473884,6.98673211 C8.21244432,7.29689905 8.27032868,7.58873272 8.31250071,7.79574796 C8.51090279,8.9200264 9.16946092,9.64130435 10,9.64130435 C10.8446667,9.64130435 11.4911749,8.94092049 11.6913849,7.77537885 C11.7296713,7.58873272 11.7875557,7.29689905 11.8452612,6.98673211 C11.8584078,6.91581835 11.8584078,6.91581835 11.8714044,6.84459833 C11.9427581,6.45186529 11.9891304,6.14427488 11.9891304,6.08695652 Z"/>
</svg>
