
<svg width="22px" height="16px" viewBox="0 0 22 16" version="1.1" xmlns="http://www.w3.org/2000/svg">
    <g id="Settings" stroke="none" stroke-width="1" fill="none" fill-rule="evenodd">
        <g id="Settings---Webhooks" transform="translate(-130.000000, -200.000000)" stroke="#1F346C">
            <g id="users" transform="translate(131.000000, 201.000000)">
                <path d="M9.53571429,2.64285714 C9.57142857,1.21428571 8.39285714,0 6.96428571,0 C6.92857143,0 6.89285714,0 6.85714286,0 C5.39285714,0 4.10714286,1.17857143 4.17857143,2.64285714 C4.17857143,2.92857143 4.46428571,4.42857143 4.46428571,4.42857143 C4.67857143,5.71428571 5.53571429,6.78571429 6.85714286,6.78571429 C8.17857143,6.78571429 9,5.71428571 9.25,4.42857143 C9.25,4.42857143 9.53571429,2.96428571 9.53571429,2.64285714 Z" id="Shape"></path>
                <path d="M13.4642857,13.5714286 L0.25,13.5714286 L0.464285714,11 C0.571428571,10.0357143 1.57142857,9.35714286 2.57142857,9.17857143 L6.85714286,8.60714286 L11.1785714,9.17857143 C12.2857143,9.39285714 13.25,10 13.3214286,11.1071429 L13.4642857,13.5714286 Z" id="Shape"></path>
                <path d="M16.5,4.42857143 C16.5,3.25 15.5357143,2.28571429 14.3571429,2.28571429 C13.1785714,2.28571429 12.2142857,3.25 12.2142857,4.42857143 C12.2142857,4.67857143 12.4642857,5.82142857 12.4642857,5.82142857 C12.6428571,6.82142857 13.3214286,7.67857143 14.3571429,7.67857143 C15.3928571,7.67857143 16.0714286,6.82142857 16.25,5.82142857 C16.2857143,5.82142857 16.5,4.64285714 16.5,4.42857143 Z" id="Shape"></path>
                <path d="M14.3571429,9.28571429 L17.8928571,9.71428571 C18.75,9.85714286 19.5357143,10.3571429 19.6071429,11.2857143 L19.7142857,13.5714286 L15.6071429,13.5714286" id="Shape"></path>
            </g>
        </g>
    </g>
</svg>