<svg xmlns="http://www.w3.org/2000/svg" width="24" height="18" viewBox="0 0 24 18">
  <path d="M12.1010922,5.12730096 C12.0864172,5.21597257 12.0864172,5.21597257 12.0716285,5.30371516 C12.0367236,5.50997156 11.999405,5.72176641 11.9620928,5.92771074 C11.9396889,6.05136855 11.9223028,6.14539555 11.9122005,6.1991936 C11.5509772,8.12929195 10.3095236,9.50510204 8.54285714,9.50510204 C6.76259189,9.50510204 5.47765852,8.09675492 5.17300937,6.19647039 C5.16288252,6.14122765 5.14552857,6.04528189 5.12317439,5.91947913 C5.08593633,5.70991427 5.04869168,5.49515293 5.01386309,5.28708605 C5.00126772,5.2116115 5.00126772,5.2116115 4.98874219,5.1355369 C4.89595169,4.5698622 4.84642857,4.21045072 4.84725386,4.05558283 C4.74979424,1.97981938 6.47698656,0.25 8.54285714,0.25 L8.66071429,0.25 C10.6571846,0.25 12.284324,1.98620044 12.2392436,4.03086331 C12.2376184,4.2352992 12.189009,4.593342 12.1010922,5.12730096 Z M10.7392857,4.02040816 C10.76885,2.78273936 9.80244983,1.75 8.66071429,1.75 L8.54285714,1.75 C7.31790663,1.75 6.28903652,2.78043502 6.34642857,4.02040816 C6.34642857,4.0898489 6.39456702,4.43921124 6.46895989,4.89272926 C6.48106311,4.96623915 6.48106311,4.96623915 6.49327977,5.03944456 C6.52720118,5.24209197 6.56361725,5.45207552 6.6000399,5.65705149 C6.62188214,5.77997322 6.63890319,5.87407847 6.65124656,5.94243077 C6.85238909,7.1963063 7.5903099,8.00510204 8.54285714,8.00510204 C9.4819943,8.00510204 10.1963359,7.21345076 10.4378866,5.922791 C10.4473401,5.87246159 10.464329,5.78058298 10.4861215,5.66029947 C10.52247,5.45967491 10.5588121,5.2534213 10.5926572,5.0534277 C10.6069292,4.96875022 10.6069292,4.96875022 10.6210204,4.88360586 C10.6937333,4.44198672 10.7392857,4.10459584 10.7392857,4.02040816 Z M0.462435101,17.2602041 L0.527400938,16.4502404 L0.764966761,13.491675 C0.914422458,12.0941672 2.18516355,11.0318967 3.72565809,10.7468902 L8.4399438,10.093829 L8.64493578,10.0937139 L13.4442857,10.7545148 C15.1200908,11.0915012 16.3058483,12.0968904 16.4024067,13.6520947 L16.6037287,17.2602041 L0.462435101,17.2602041 Z M14.9050133,13.7403606 C14.8576211,12.977162 14.2261825,12.441773 13.1943499,12.2328167 L8.54321941,11.5938292 L3.96538332,12.227212 C3.05053669,12.3969424 2.32580495,13.0027787 2.25831335,13.6313922 L2.0875649,15.7602041 L15.017704,15.7602041 L14.9050133,13.7403606 Z M16.7928571,10.5255102 C15.3140234,10.5255102 14.2412006,9.34896573 13.976805,7.80758353 C13.9414902,7.6398545 13.8890244,7.38158133 13.8363674,7.10413095 C13.8233837,7.03544389 13.8233837,7.03544389 13.8104859,6.96596381 C13.7289745,6.52462271 13.6857143,6.23915345 13.6857143,6.06122449 C13.6857143,4.30635026 15.0756657,2.8622449 16.7928571,2.8622449 C18.5100486,2.8622449 19.9,4.30635026 19.9,6.06122449 C19.9,6.58975745 19.8186165,7.28318883 19.6021092,7.77803312 C19.3445137,9.34896573 18.2716909,10.5255102 16.7928571,10.5255102 Z M18.2883073,6.82056575 C18.3503227,6.46371433 18.4,6.11218911 18.4,6.06122449 C18.4,5.12222117 17.6685228,4.3622449 16.7928571,4.3622449 C15.9171914,4.3622449 15.1857143,5.12222117 15.1857143,6.06122449 C15.1857143,6.10644111 15.2250537,6.36603753 15.2855394,6.69353581 C15.2977159,6.75913027 15.2977159,6.75913027 15.3100612,6.82444048 C15.3605292,7.09035745 15.4111884,7.33973734 15.449876,7.52601781 C15.6071839,8.4412643 16.139924,9.0255102 16.7928571,9.0255102 C17.4457903,9.0255102 17.9785303,8.4412643 18.1358383,7.52601781 L18.242909,6.90306122 L18.2737897,6.90306122 C18.2786176,6.87597144 18.2834652,6.84842862 18.2883073,6.82056575 Z M21.8199044,13.9533365 C21.7767972,13.3711099 21.3138619,12.9725905 20.588432,12.8461633 L16.6991463,12.3563674 L16.886568,10.8681224 L20.8101087,11.3630383 C22.1871144,11.6014808 23.2154228,12.4867036 23.317095,13.8641557 L23.4703151,17.2602041 L18.1678571,17.2602041 L18.1678571,15.7602041 L21.9012078,15.7602041 L21.8199044,13.9533365 Z"/>
</svg>
