<svg xmlns="http://www.w3.org/2000/svg" width="20" height="13" viewBox="0 0 20 13">
  <path d="M17.7314856,6.11993326 C17.1850364,5.50380252 16.5635614,4.88717252 15.88091,4.3131713 C13.9675267,2.70432054 11.9668619,1.75 10,1.75 C8.03313812,1.75 6.03247327,2.70432054 4.11909005,4.3131713 C3.43643859,4.88717252 2.81496364,5.50380252 2.26851435,6.11993326 C2.15239761,6.25085684 2.04898313,6.37095168 1.95885056,6.47826087 C2.04898313,6.58557006 2.15239761,6.7056649 2.26851435,6.83658848 C2.81496364,7.45271922 3.43643859,8.06934922 4.11909005,8.64335044 C6.03247327,10.2522012 8.03313812,11.2065217 10,11.2065217 C11.9668619,11.2065217 13.9675267,10.2522012 15.88091,8.64335044 C16.5635614,8.06934922 17.1850364,7.45271922 17.7314856,6.83658848 C17.8476024,6.7056649 17.9510169,6.58557006 18.0411494,6.47826087 C17.9510169,6.37095168 17.8476024,6.25085684 17.7314856,6.11993326 Z M19.4026169,7.18235831 C19.2450449,7.37919786 19.0616072,7.59747605 18.8537046,7.83188978 C18.2613971,8.49972644 17.5888163,9.16706382 16.846264,9.79143217 C14.6876363,11.6064945 12.3815077,12.7065217 10,12.7065217 C7.61849232,12.7065217 5.31236369,11.6064945 3.15373604,9.79143217 C2.41118369,9.16706382 1.73860294,8.49972644 1.14629543,7.83188978 C0.938392772,7.59747605 0.754955142,7.37919786 0.597383069,7.18235831 C0.500909654,7.0618434 0.433263125,6.97352651 0.395882906,6.92271845 L0.068889118,6.47826087 L0.395882906,6.03380329 C0.433263125,5.98299523 0.500909654,5.89467834 0.597383069,5.77416343 C0.754955142,5.57732388 0.938392772,5.35904569 1.14629543,5.12463196 C1.73860294,4.4567953 2.41118369,3.78945792 3.15373604,3.16508957 C5.31236369,1.35002728 7.61849232,0.25 10,0.25 C12.3815077,0.25 14.6876363,1.35002728 16.846264,3.16508957 C17.5888163,3.78945792 18.2613971,4.4567953 18.8537046,5.12463196 C19.0616072,5.35904569 19.2450449,5.57732388 19.4026169,5.77416343 C19.4990903,5.89467834 19.5667369,5.98299523 19.6041171,6.03380329 L19.9311109,6.47826087 L19.6041171,6.92271845 C19.5667369,6.97352651 19.4990903,7.0618434 19.4026169,7.18235831 Z M10,9.9673913 C11.9269935,9.9673913 13.4891304,8.4052544 13.4891304,6.47826087 C13.4891304,4.55126734 11.9269935,2.98913043 10,2.98913043 C8.07300647,2.98913043 6.51086957,4.55126734 6.51086957,6.47826087 C6.51086957,8.4052544 8.07300647,9.9673913 10,9.9673913 Z M10,8.4673913 C8.9014336,8.4673913 8.01086957,7.57682727 8.01086957,6.47826087 C8.01086957,5.37969447 8.9014336,4.48913043 10,4.48913043 C11.0985664,4.48913043 11.9891304,5.37969447 11.9891304,6.47826087 C11.9891304,7.57682727 11.0985664,8.4673913 10,8.4673913 Z"/>
</svg>
