
<svg width="19px" height="19px" viewBox="0 0 19 19" version="1.1" xmlns="http://www.w3.org/2000/svg">
    <g id="Settings" stroke="none" stroke-width="1" fill="none" fill-rule="evenodd">
        <g id="Settings---Webhooks" transform="translate(-131.000000, -137.000000)" stroke="#1F346C">
            <g id="wranch" transform="translate(132.000000, 138.000000)">
                <path d="M15.5362831,6.06302609 L17.1891527,3.20431304 L16.4378483,2.4530087 L14.4468918,4.4589913 L12.8466135,2.86246957 L14.8450831,0.864 L13.9810831,0 L11.1787179,1.73551304 C10.49485,2.16048311 10.0896117,2.91797812 10.1156222,3.72271304 L10.156944,5.00744348 L0.442578764,14.7105391 C0.159271431,14.9925313 8.34115385e-17,15.3757849 0,15.775513 C-8.34115385e-17,16.1752412 0.159271431,16.5584948 0.442578764,16.840487 C0.724718489,17.1249498 1.10877906,17.2849561 1.50943094,17.2849561 C1.91008282,17.2849561 2.29414339,17.1249498 2.57628311,16.840487 L12.3056744,7.1373913 L13.4777092,7.18998261 C14.3207764,7.2293795 15.1152095,6.79447084 15.5362831,6.06302609 Z" id="Shape"></path>
                <path d="M14.5152,16.8705391 L10.8,13.1966609 L13.2004174,10.8 L16.9118609,14.4738783 C17.2307259,14.791138 17.4099979,15.2223992 17.4099979,15.6722087 C17.4099979,16.1220182 17.2307259,16.5532794 16.9118609,16.8705391 C16.2493006,17.5305682 15.1777603,17.5305682 14.5152,16.8705391 Z" id="Shape"></path>
                <polygon id="Shape" points="8.26810435 6.91951304 6.93453913 8.25307826 3.06907826 4.39137391 0.931617391 3.85794783 0 0.796382609 0.80013913 0 4.00069565 0.796382609 4.40264348 3.06156522"></polygon>
                <polygon id="Shape" points="11.4937043 12.2349913 9.36 10.1050435 10.8288 8.64 12.9625043 10.7699478"></polygon>
            </g>
        </g>
    </g>
</svg>