<svg xmlns="http://www.w3.org/2000/svg" width="20" height="20" viewBox="0 0 20 20">
  <path d="M14.7995715,9.07945885 L13.934289,9.04063207 L4.25164894,18.6970874 C3.82318154,19.1290828 3.23993353,19.372074 2.63148936,19.372074 C2.0230452,19.372074 1.43979719,19.1290828 1.01473499,18.7004987 C0.584494415,18.2722554 0.342619168,17.6902329 0.342619168,17.0831915 C0.342619168,16.4761501 0.584494415,15.8941276 1.01380759,15.466809 L10.6875949,5.80424421 L10.6559234,4.81954794 C10.6207503,3.73133856 11.1687372,2.70700975 12.094478,2.13173571 L15.4566042,0.0495610645 L17.2878942,1.88085106 L15.251071,3.91767432 L15.8186563,4.48392732 L17.8490664,2.43819342 L19.5545522,4.14367923 L17.5815278,7.55611462 C17.0120303,8.54482105 15.9379748,9.13265821 14.7995715,9.07945885 Z M15.696904,1.66509991 L15.696904,1.6324813 L15.4442443,1.60318067 L15.1665739,1.88085106 L15.2361616,1.95043882 L15.696904,1.66509991 Z M14.8705812,2.17684372 L12.8852202,3.40638291 C12.4155747,3.69823064 12.1372777,4.21843952 12.1551443,4.77120881 L12.2077243,6.40596855 L11.9776818,6.63574417 L2.07292459,16.5290093 C1.9254995,16.67575 1.84261917,16.8751843 1.84261917,17.0831915 C1.84261917,17.2911987 1.9254995,17.490633 2.07632979,17.6407849 C2.22314729,17.7888113 2.4230015,17.872074 2.63148936,17.872074 C2.83997722,17.872074 3.03983144,17.7888113 3.18953697,17.6378889 L13.3423064,7.5125594 L13.6719179,7.52734966 L14.8682011,7.58103033 C15.4471766,7.6080861 15.9927527,7.30941305 16.2819245,6.80709416 L17.196869,5.22465339 L15.8238969,6.60798758 L13.1285035,3.91892142 L14.8705812,2.17684372 Z M11.3573899,13.8245202 L9.18329808,11.6542561 L11.7427648,9.10133535 L13.9155842,11.2703294 L14.3215543,10.8649946 L14.8514555,11.3895325 L18.6366497,15.1364184 C19.1032054,15.6006254 19.365512,16.2316365 19.365512,16.8897872 C19.365512,17.5479379 19.1032054,18.1789491 18.6369737,18.6428334 C17.6691861,19.6069237 16.1042288,19.6072765 15.1360042,18.6438918 L10.8125414,14.368516 L11.3573899,13.8245202 Z M12.9421449,14.3648771 L16.1916114,17.5782019 C16.5763927,17.961506 17.1955221,17.961506 17.5786694,17.5798227 C17.7622817,17.3971348 17.865512,17.1488014 17.865512,16.8897872 C17.865512,16.6307731 17.7622817,16.3824397 17.5800338,16.2011058 L14.3282914,12.9822757 L12.9421449,14.3648771 Z M18.0322912,4.38292614 L17.8530613,4.56350871 L17.6794904,4.38993779 L17.8875347,4.03011574 L17.9859311,4.02993078 L18.0322912,4.38292614 Z M10.490538,8.12288812 L8.07004499,10.5433811 L3.74580756,6.22334608 L1.35595768,5.62693363 L0.151139896,1.66755262 L1.58642485,0.239006091 L5.73214773,1.27057094 L6.1856668,3.82638401 L10.490538,8.12288812 Z M4.79135448,4.55404153 L4.42529908,2.49113119 L2.04506451,1.89886625 L1.8488601,2.09414951 L2.54361679,4.37732169 L4.51206478,4.86856882 L8.06952948,8.42257631 L8.36818539,8.12392039 L4.79135448,4.55404153 Z M1.74876598,1.76521114 L1.687454,1.78215239 L1.6808959,1.80825153 L1.76849567,1.83004865 L1.74876598,1.76521114 Z M12.856064,12.3321284 L11.7423416,11.2203668 L11.3069147,11.6546801 L12.4206371,12.7664417 L12.856064,12.3321284 Z"/>
</svg>
